<svg width="102" height="50" viewBox="0 0 102 50" fill="none" xmlns="http://www.w3.org/2000/svg">
<mask id="path-1-outside-1_2_8" maskUnits="userSpaceOnUse" x="0" y="0" width="102" height="50" fill="black">
<rect fill="white" width="102" height="50"/>
<path fill-rule="evenodd" clip-rule="evenodd" d="M2.29955 2.22808C2.24646 2.90344 2.22212 3.4864 2.2456 3.52336C2.29556 3.60208 67.5369 3.71536 87.1576 3.67048L100.573 3.64V2.32V1H51.4846H2.3962L2.29955 2.22808ZM1 15.28C1 19.768 1.01922 21.5702 1.0427 19.2846C1.06605 16.9991 1.06605 13.3271 1.04256 11.1246C1.01907 8.92216 1 10.792 1 15.28ZM15.3123 7.49584C14.1737 7.71304 12.2369 8.47168 11.1845 9.11296C8.42551 10.7937 5.56835 15.364 4.02825 20.56C2.9395 24.233 2.47961 29.7942 2.98605 33.16C3.52152 36.7182 4.74734 39.3827 6.4964 40.7901C7.43953 41.549 9.41989 42.2807 10.527 42.2793C11.32 42.2781 13.3906 41.6522 14.4097 41.1052L15.2411 40.659L15.2861 41.2295L15.3312 41.8H18.9997H22.6682L23.4257 37.06C23.8422 34.4531 24.3908 31.0072 24.6445 29.4026C24.8983 27.7979 25.1486 26.2588 25.2005 25.9826C25.2949 25.4812 25.2856 25.48 21.5898 25.48C17.4036 25.48 17.7699 25.2952 17.4536 27.568C17.2468 29.0548 17.1242 29.253 16.1387 29.6954C12.8353 31.1778 10.476 28.1786 11.4639 23.7515C12.0529 21.111 13.4585 19.1714 15.5021 18.1785C16.4396 17.723 19.2481 17.6202 19.4927 18.0328C19.5733 18.1686 19.7618 18.28 19.9115 18.28C20.3394 18.28 22.0255 19.9108 22.5357 20.818C22.7899 21.2702 23.0596 21.64 23.135 21.64C23.2105 21.64 23.3456 21.1811 23.4352 20.62C24.3732 14.7518 24.8489 11.649 24.8489 11.3999C24.8489 11.0246 23.8681 10.0461 22.5697 9.12616C20.6369 7.75696 17.5636 7.06648 15.3123 7.49584ZM31.4211 7.82272C29.9074 8.65216 29.0012 10.5983 29.182 12.6316C29.3137 14.1119 29.7801 15.1475 30.6665 15.9282C33.1232 18.0923 36.2898 14.9822 35.658 11.0258C35.4781 9.89872 34.7379 8.56336 34.0083 8.04928C33.2947 7.54672 32.1139 7.44328 31.4211 7.82272ZM39.3666 7.70416C37.8037 8.50576 36.8983 10.6017 37.1474 12.8409C37.2621 13.871 38.0682 15.4569 38.7578 16.0089C39.4304 16.547 41.0781 16.5808 41.7872 16.071C42.4515 15.5932 43.1703 14.5475 43.441 13.6646C43.7222 12.7482 43.7237 11.0968 43.4443 10.186C42.8444 8.22976 40.7853 6.97672 39.3666 7.70416ZM59.8055 11.98C57.5039 26.2324 55.2241 40.997 55.3022 41.1443C55.3561 41.2458 56.9591 41.2998 58.8647 41.2643L62.3294 41.2L62.5954 39.64C62.7416 38.782 63.0812 36.6892 63.3499 34.9893C63.6188 33.2894 63.8682 31.8489 63.9042 31.7882C63.959 31.6958 66.0124 36.8219 67.3233 40.3233L67.6811 41.2792L71.6354 41.2619C75.6723 41.2444 76.0908 41.2002 76.0908 40.7894C76.0908 40.6605 75.0284 37.9727 73.7298 34.817L71.3688 29.079L71.7539 28.2995C71.9657 27.8709 72.4997 26.8715 72.9405 26.079C73.3815 25.2866 74.5749 23.1266 75.5926 21.279C76.6103 19.4315 77.491 17.884 77.5497 17.8401C77.6085 17.7959 77.6565 17.661 77.6565 17.5401C77.6565 17.4114 75.9568 17.327 73.5643 17.337L69.472 17.3541L68.4045 19.4226C65.992 24.0971 64.9276 26.0126 64.8789 25.7666C64.8507 25.6238 65.3762 22.0586 66.0467 17.8442C66.7172 13.6298 67.2658 10.0598 67.2658 9.91072C67.2658 9.71704 66.2589 9.64 63.7246 9.64H60.1835L59.8055 11.98ZM92.679 15.82C92.1456 19.2189 91.3018 24.592 90.804 27.76C90.3061 30.928 89.6711 34.978 89.3927 36.76C89.1143 38.542 88.8535 40.1889 88.8131 40.42C88.7445 40.8124 88.9828 40.84 92.44 40.84H96.1403L96.3508 39.58C96.4667 38.8871 97.0773 35.026 97.7077 31C98.3383 26.974 99.3369 20.607 99.927 16.851C100.517 13.095 101 9.93592 101 9.83104C101 9.72592 99.346 9.64 97.3245 9.64H93.6491L92.679 15.82ZM81.9266 16.8287C78.9081 17.4503 76.6509 19.5815 75.0033 23.3658C72.9643 28.0492 73.1912 34.7433 75.507 38.2233C75.9376 38.8706 76.3679 39.4 76.4631 39.4C76.5585 39.4 76.6577 39.4809 76.6839 39.58C76.7669 39.8951 77.5577 40.528 78.4394 40.985C79.1111 41.333 79.7188 41.4218 81.2861 41.4006C83.4918 41.3706 85.1834 40.8167 87.1865 39.4684L88.2386 38.7602L88.7101 35.7801C89.2605 32.3008 89.3012 31.5916 88.9368 31.8347C88.1982 32.3277 86.3703 32.9733 85.0369 33.2123C83.1539 33.5498 80.7938 33.2003 80.2388 32.5017C79.8395 31.9989 79.5522 31.3238 79.6599 31.1418C79.6995 31.0754 82.016 30.9892 84.8077 30.9503C88.7381 30.8958 89.9254 30.8097 90.0685 30.568C90.1992 30.3477 90.2534 29.4299 90.2534 27.443C90.2534 24.7365 90.2354 24.568 89.776 22.995C89.1876 20.9795 88.6938 20.0123 87.665 18.861C86.1037 17.1136 84.0594 16.3895 81.9266 16.8287ZM33.3652 17.0699C31.4779 17.6514 29.8195 18.8776 28.2705 20.8367C25.9085 23.8238 24.6142 29.1945 25.2118 33.5286C26.134 40.2177 30.2293 43.6242 34.8838 41.5739C37.9627 40.2177 40.3802 37.0626 41.5902 32.8216C42.0801 31.1044 42.1295 31.1116 42.2808 32.92C42.4142 34.515 43.2904 37.3955 43.992 38.5451C44.6684 39.6534 45.9677 40.906 47.0115 41.4558C48.1487 42.0549 50.5234 42.1749 51.7959 41.6975C53.0927 41.211 54.4495 40.3197 54.6024 39.8534C54.7239 39.4826 55.8787 32.1815 55.8787 31.7834C55.8787 31.6449 55.4106 31.8378 54.8385 32.2125C53.0436 33.3875 50.0836 33.652 49.1337 32.7222C48.6549 32.2535 48.1924 30.9225 48.1924 30.0131C48.1924 28.3742 49.1925 26.3332 50.2683 25.7764C51.5139 25.132 54.305 25.9091 55.6505 27.2752C56.0875 27.719 56.47 28.0096 56.5005 27.921C56.5308 27.8325 56.8311 26.0433 57.1677 23.945L57.7799 20.1297L57.4346 19.6583C56.8564 18.869 55.5308 17.8386 54.4338 17.326C53.1376 16.7205 51.0198 16.678 49.5837 17.2288C46.7537 18.3141 44.1428 21.6542 42.9098 25.7666L42.3956 27.4818L42.2387 25.9811C41.812 21.8966 40.0964 18.7595 37.5593 17.4246C36.7379 16.9924 34.2887 16.7853 33.3652 17.0699ZM83.9194 23.0961C84.3911 23.4134 84.9627 24.7768 84.7645 25.1111C84.6815 25.251 83.7204 25.3936 82.5602 25.438C80.8305 25.504 80.5033 25.4608 80.5033 25.1663C80.5033 24.699 81.5504 23.1225 81.9587 22.9754C82.1367 22.9113 82.4106 22.811 82.5672 22.7526C82.9011 22.6283 83.4202 22.7601 83.9194 23.0961ZM1.00014 33.64C1.00014 38.194 1.01922 40.0571 1.04256 37.78C1.06605 35.5029 1.06605 31.7771 1.04256 29.5C1.01922 27.2231 1.00014 29.086 1.00014 33.64ZM35.0688 26.0572C36.2027 27.052 36.5399 29.0037 35.8974 30.8524C35.427 32.2055 34.84 32.9164 33.8837 33.2913C31.2603 34.3197 29.9653 30.2373 31.9215 27.1058C32.6968 25.8647 34.2568 25.3449 35.0688 26.0572ZM10.9354 46.3L2.35947 46.3638V47.6819V49H51.4662H100.573V47.56V46.12L60.0421 46.1781C37.7501 46.21 15.6522 46.265 10.9354 46.3Z"/>
</mask>
<path fill-rule="evenodd" clip-rule="evenodd" d="M2.29955 2.22808C2.24646 2.90344 2.22212 3.4864 2.2456 3.52336C2.29556 3.60208 67.5369 3.71536 87.1576 3.67048L100.573 3.64V2.32V1H51.4846H2.3962L2.29955 2.22808ZM1 15.28C1 19.768 1.01922 21.5702 1.0427 19.2846C1.06605 16.9991 1.06605 13.3271 1.04256 11.1246C1.01907 8.92216 1 10.792 1 15.28ZM15.3123 7.49584C14.1737 7.71304 12.2369 8.47168 11.1845 9.11296C8.42551 10.7937 5.56835 15.364 4.02825 20.56C2.9395 24.233 2.47961 29.7942 2.98605 33.16C3.52152 36.7182 4.74734 39.3827 6.4964 40.7901C7.43953 41.549 9.41989 42.2807 10.527 42.2793C11.32 42.2781 13.3906 41.6522 14.4097 41.1052L15.2411 40.659L15.2861 41.2295L15.3312 41.8H18.9997H22.6682L23.4257 37.06C23.8422 34.4531 24.3908 31.0072 24.6445 29.4026C24.8983 27.7979 25.1486 26.2588 25.2005 25.9826C25.2949 25.4812 25.2856 25.48 21.5898 25.48C17.4036 25.48 17.7699 25.2952 17.4536 27.568C17.2468 29.0548 17.1242 29.253 16.1387 29.6954C12.8353 31.1778 10.476 28.1786 11.4639 23.7515C12.0529 21.111 13.4585 19.1714 15.5021 18.1785C16.4396 17.723 19.2481 17.6202 19.4927 18.0328C19.5733 18.1686 19.7618 18.28 19.9115 18.28C20.3394 18.28 22.0255 19.9108 22.5357 20.818C22.7899 21.2702 23.0596 21.64 23.135 21.64C23.2105 21.64 23.3456 21.1811 23.4352 20.62C24.3732 14.7518 24.8489 11.649 24.8489 11.3999C24.8489 11.0246 23.8681 10.0461 22.5697 9.12616C20.6369 7.75696 17.5636 7.06648 15.3123 7.49584ZM31.4211 7.82272C29.9074 8.65216 29.0012 10.5983 29.182 12.6316C29.3137 14.1119 29.7801 15.1475 30.6665 15.9282C33.1232 18.0923 36.2898 14.9822 35.658 11.0258C35.4781 9.89872 34.7379 8.56336 34.0083 8.04928C33.2947 7.54672 32.1139 7.44328 31.4211 7.82272ZM39.3666 7.70416C37.8037 8.50576 36.8983 10.6017 37.1474 12.8409C37.2621 13.871 38.0682 15.4569 38.7578 16.0089C39.4304 16.547 41.0781 16.5808 41.7872 16.071C42.4515 15.5932 43.1703 14.5475 43.441 13.6646C43.7222 12.7482 43.7237 11.0968 43.4443 10.186C42.8444 8.22976 40.7853 6.97672 39.3666 7.70416ZM59.8055 11.98C57.5039 26.2324 55.2241 40.997 55.3022 41.1443C55.3561 41.2458 56.9591 41.2998 58.8647 41.2643L62.3294 41.2L62.5954 39.64C62.7416 38.782 63.0812 36.6892 63.3499 34.9893C63.6188 33.2894 63.8682 31.8489 63.9042 31.7882C63.959 31.6958 66.0124 36.8219 67.3233 40.3233L67.6811 41.2792L71.6354 41.2619C75.6723 41.2444 76.0908 41.2002 76.0908 40.7894C76.0908 40.6605 75.0284 37.9727 73.7298 34.817L71.3688 29.079L71.7539 28.2995C71.9657 27.8709 72.4997 26.8715 72.9405 26.079C73.3815 25.2866 74.5749 23.1266 75.5926 21.279C76.6103 19.4315 77.491 17.884 77.5497 17.8401C77.6085 17.7959 77.6565 17.661 77.6565 17.5401C77.6565 17.4114 75.9568 17.327 73.5643 17.337L69.472 17.3541L68.4045 19.4226C65.992 24.0971 64.9276 26.0126 64.8789 25.7666C64.8507 25.6238 65.3762 22.0586 66.0467 17.8442C66.7172 13.6298 67.2658 10.0598 67.2658 9.91072C67.2658 9.71704 66.2589 9.64 63.7246 9.64H60.1835L59.8055 11.98ZM92.679 15.82C92.1456 19.2189 91.3018 24.592 90.804 27.76C90.3061 30.928 89.6711 34.978 89.3927 36.76C89.1143 38.542 88.8535 40.1889 88.8131 40.42C88.7445 40.8124 88.9828 40.84 92.44 40.84H96.1403L96.3508 39.58C96.4667 38.8871 97.0773 35.026 97.7077 31C98.3383 26.974 99.3369 20.607 99.927 16.851C100.517 13.095 101 9.93592 101 9.83104C101 9.72592 99.346 9.64 97.3245 9.64H93.6491L92.679 15.82ZM81.9266 16.8287C78.9081 17.4503 76.6509 19.5815 75.0033 23.3658C72.9643 28.0492 73.1912 34.7433 75.507 38.2233C75.9376 38.8706 76.3679 39.4 76.4631 39.4C76.5585 39.4 76.6577 39.4809 76.6839 39.58C76.7669 39.8951 77.5577 40.528 78.4394 40.985C79.1111 41.333 79.7188 41.4218 81.2861 41.4006C83.4918 41.3706 85.1834 40.8167 87.1865 39.4684L88.2386 38.7602L88.7101 35.7801C89.2605 32.3008 89.3012 31.5916 88.9368 31.8347C88.1982 32.3277 86.3703 32.9733 85.0369 33.2123C83.1539 33.5498 80.7938 33.2003 80.2388 32.5017C79.8395 31.9989 79.5522 31.3238 79.6599 31.1418C79.6995 31.0754 82.016 30.9892 84.8077 30.9503C88.7381 30.8958 89.9254 30.8097 90.0685 30.568C90.1992 30.3477 90.2534 29.4299 90.2534 27.443C90.2534 24.7365 90.2354 24.568 89.776 22.995C89.1876 20.9795 88.6938 20.0123 87.665 18.861C86.1037 17.1136 84.0594 16.3895 81.9266 16.8287ZM33.3652 17.0699C31.4779 17.6514 29.8195 18.8776 28.2705 20.8367C25.9085 23.8238 24.6142 29.1945 25.2118 33.5286C26.134 40.2177 30.2293 43.6242 34.8838 41.5739C37.9627 40.2177 40.3802 37.0626 41.5902 32.8216C42.0801 31.1044 42.1295 31.1116 42.2808 32.92C42.4142 34.515 43.2904 37.3955 43.992 38.5451C44.6684 39.6534 45.9677 40.906 47.0115 41.4558C48.1487 42.0549 50.5234 42.1749 51.7959 41.6975C53.0927 41.211 54.4495 40.3197 54.6024 39.8534C54.7239 39.4826 55.8787 32.1815 55.8787 31.7834C55.8787 31.6449 55.4106 31.8378 54.8385 32.2125C53.0436 33.3875 50.0836 33.652 49.1337 32.7222C48.6549 32.2535 48.1924 30.9225 48.1924 30.0131C48.1924 28.3742 49.1925 26.3332 50.2683 25.7764C51.5139 25.132 54.305 25.9091 55.6505 27.2752C56.0875 27.719 56.47 28.0096 56.5005 27.921C56.5308 27.8325 56.8311 26.0433 57.1677 23.945L57.7799 20.1297L57.4346 19.6583C56.8564 18.869 55.5308 17.8386 54.4338 17.326C53.1376 16.7205 51.0198 16.678 49.5837 17.2288C46.7537 18.3141 44.1428 21.6542 42.9098 25.7666L42.3956 27.4818L42.2387 25.9811C41.812 21.8966 40.0964 18.7595 37.5593 17.4246C36.7379 16.9924 34.2887 16.7853 33.3652 17.0699ZM83.9194 23.0961C84.3911 23.4134 84.9627 24.7768 84.7645 25.1111C84.6815 25.251 83.7204 25.3936 82.5602 25.438C80.8305 25.504 80.5033 25.4608 80.5033 25.1663C80.5033 24.699 81.5504 23.1225 81.9587 22.9754C82.1367 22.9113 82.4106 22.811 82.5672 22.7526C82.9011 22.6283 83.4202 22.7601 83.9194 23.0961ZM1.00014 33.64C1.00014 38.194 1.01922 40.0571 1.04256 37.78C1.06605 35.5029 1.06605 31.7771 1.04256 29.5C1.01922 27.2231 1.00014 29.086 1.00014 33.64ZM35.0688 26.0572C36.2027 27.052 36.5399 29.0037 35.8974 30.8524C35.427 32.2055 34.84 32.9164 33.8837 33.2913C31.2603 34.3197 29.9653 30.2373 31.9215 27.1058C32.6968 25.8647 34.2568 25.3449 35.0688 26.0572ZM10.9354 46.3L2.35947 46.3638V47.6819V49H51.4662H100.573V47.56V46.12L60.0421 46.1781C37.7501 46.21 15.6522 46.265 10.9354 46.3Z" stroke="white" stroke-width="2" mask="url(#path-1-outside-1_2_8)"/>
</svg>
