<svg id="Ebene_1" data-name="Ebene 1" xmlns="http://www.w3.org/2000/svg" viewBox="0 0 275 90"><title>Loroch-Logo</title><path d="M38.8,18,.61,48.78H42.1l2.32-8c-3.31-.38-9.34-3.51-8.9-9.56C35.74,28.15,38.8,18,38.8,18Z" fill="#1d1d1b"/><polygon points="76.67 1.1 90.55 1.1 79.3 44.53 92.77 44.53 91.17 48.78 64.17 48.78 76.67 1.1 76.67 1.1" fill="#0069b4"/><path d="M141.42,15.4l-9.87,33.38h12.87l5.13-18s7.31-7.19,10.62-7.88c.39-.08-.12,1.5-3.74,14.63h11.75c3-9.26,4.68-14.29,4.87-15.91.34-2.93-2.19-6-6.19-5.84A14.07,14.07,0,0,0,160,17.53c-2.34,1.16-8.4,6.12-8.4,6.12l2.19-8.25Z" fill="#0069b4"/><path d="M46.3,2.9H61.36L53.67,32.47a6.51,6.51,0,0,1-6.37,5.25c-4.69.12-9.31-2.88-8.06-8.19S46.3,2.9,46.3,2.9ZM45,1.1H63.55L55.42,33s-1.53,6.59-8.12,6.59c-7.44,0-10.94-5.4-9.88-10C38.35,25.58,45,1.1,45,1.1Z" fill="#1d1d1b" fill-rule="evenodd"/><path d="M101.86,20c-1,2.74-6.94,21.93-6.94,21.93-.56,1.75-1.21,6.88,5.79,6.88h20.84s6,0,7.5-4.88l6.69-21.75c.56-1.93-.25-6.75-4.32-6.75H109.48c-1.31.07-6.37,1.07-7.62,4.57Zm12.28,1.37A2.51,2.51,0,0,1,116.27,20a11.33,11.33,0,0,1,4.37.06c.62.17,1.81.46,1.5,1.69-.37,1.5-5.87,20.93-5.87,20.93-.22.88-.41,1.22-1.16,1.57a8.81,8.81,0,0,1-6.06.31c-.88-.34-1-1-.78-2s5.87-21.19,5.87-21.19ZM101.86,20c-1,2.74-6.94,21.93-6.94,21.93-.56,1.75-1.21,6.88,5.79,6.88h20.84s6,0,7.5-4.88l6.69-21.75c.56-1.93-.25-6.75-4.32-6.75H109.48c-1.31.07-6.37,1.07-7.62,4.57Zm12.28,1.37A2.51,2.51,0,0,1,116.27,20a11.33,11.33,0,0,1,4.37.06c.62.17,1.81.46,1.5,1.69-.37,1.5-5.87,20.93-5.87,20.93-.22.88-.41,1.22-1.16,1.57a8.81,8.81,0,0,1-6.06.31c-.88-.34-1-1-.78-2s5.87-21.19,5.87-21.19Zm0,0A2.51,2.51,0,0,1,116.27,20a11.33,11.33,0,0,1,4.37.06c.62.17,1.81.46,1.5,1.69-.37,1.5-5.87,20.93-5.87,20.93-.22.88-.41,1.22-1.16,1.57a8.81,8.81,0,0,1-6.06.31c-.88-.34-1-1-.78-2s5.87-21.19,5.87-21.19ZM101.86,20c-1,2.74-6.94,21.93-6.94,21.93-.56,1.75-1.21,6.88,5.79,6.88h20.84s6,0,7.5-4.88l6.69-21.75c.56-1.93-.25-6.75-4.32-6.75H109.48c-1.31.07-6.37,1.07-7.62,4.57Z" fill="#0069b4" fill-rule="evenodd"/><path d="M176.86,20c-1,2.74-6.94,21.93-6.94,21.93-.56,1.75-1.21,6.88,5.79,6.88H196.3s6,0,7.5-4.88l6.69-21.75c.56-1.93-.25-6.75-4.32-6.75H184.48c-1.31.07-6.37,1.07-7.62,4.57Zm12.28,1.37A2.51,2.51,0,0,1,191.27,20a11.33,11.33,0,0,1,4.37.06c.62.17,1.81.46,1.5,1.69-.37,1.5-5.87,20.93-5.87,20.93-.22.88-.41,1.22-1.16,1.57a8.81,8.81,0,0,1-6.06.31c-.88-.34-1-1-.78-2s5.87-21.19,5.87-21.19ZM176.86,20c-1,2.74-6.94,21.93-6.94,21.93-.56,1.75-1.21,6.88,5.79,6.88H196.3s6,0,7.5-4.88l6.69-21.75c.56-1.93-.25-6.75-4.32-6.75H184.48c-1.31.07-6.37,1.07-7.62,4.57Zm12.28,1.37A2.51,2.51,0,0,1,191.27,20a11.33,11.33,0,0,1,4.37.06c.62.17,1.81.46,1.5,1.69-.37,1.5-5.87,20.93-5.87,20.93-.22.88-.41,1.22-1.16,1.57a8.81,8.81,0,0,1-6.06.31c-.88-.34-1-1-.78-2s5.87-21.19,5.87-21.19Zm0,0A2.51,2.51,0,0,1,191.27,20a11.33,11.33,0,0,1,4.37.06c.62.17,1.81.46,1.5,1.69-.37,1.5-5.87,20.93-5.87,20.93-.22.88-.41,1.22-1.16,1.57a8.81,8.81,0,0,1-6.06.31c-.88-.34-1-1-.78-2s5.87-21.19,5.87-21.19ZM176.86,20c-1,2.74-6.94,21.93-6.94,21.93-.56,1.75-1.21,6.88,5.79,6.88H196.3s6,0,7.5-4.88l6.69-21.75c.56-1.93-.25-6.75-4.32-6.75H184.48c-1.31.07-6.37,1.07-7.62,4.57Z" fill="#0069b4" fill-rule="evenodd"/><path d="M253.48,15.29h13.44c6.64,0,7.07,5.56,6.63,7.31-.5,2.06-6,21.93-6,21.93h6.85l-1.34,4.25H251.8s6.87-25.81,7.25-27.31-1.63-1.63-1.63-1.63h-3.5a2,2,0,0,0-2,1.07l-7.85,27.87h-29.5c-7,0-7-5.13-6.39-6.88,0,0,5.56-19.19,6.54-21.93,1.25-3.5,6.31-4.5,7.62-4.57H236L234.64,20h-5.47c-1.62,0-2.5,1.93-2.5,1.93l-5.94,22.63h11.13L244.17,1.1h13.31l-4,14.19Z" fill="#0069b4"/><path d="M266.4,72.23a1.92,1.92,0,0,1,1.64,1,3.42,3.42,0,0,1,.55,1.72,2.14,2.14,0,0,1-.8,1.56,2.8,2.8,0,0,1-1.76.68,1.86,1.86,0,0,1-1.54-.84,2.72,2.72,0,0,1-.52-1.56,2.63,2.63,0,0,1,.79-1.72,2.43,2.43,0,0,1,1.64-.84Zm4.17-14.15a2,2,0,0,1,1.66.85,6.3,6.3,0,0,1,.82,1.55,1.44,1.44,0,0,1,.14,1,1.79,1.79,0,0,1-.51.87,5.88,5.88,0,0,0-.75.82,7.62,7.62,0,0,0-.66,1.09c-.18.33-.44.84-.77,1.54s-.78,1.69-1.33,3a3.29,3.29,0,0,1-1,1.31,1.59,1.59,0,0,1-.9.36c-.3,0-.52-.16-.67-.6a6.66,6.66,0,0,1,.26-2.86c.09-.49.34-1.43.72-2.82s.83-2.87,1.34-4.41a2.89,2.89,0,0,1,.68-1.21,1.32,1.32,0,0,1,.93-.42ZM73.14,62a4.56,4.56,0,0,1,1.29.15,3.11,3.11,0,0,1,.9.42,1.63,1.63,0,0,1,.56.59,1.5,1.5,0,0,1,.15.67,1,1,0,0,1-.4.84,1.64,1.64,0,0,1-.93.26,10,10,0,0,0-3.66.68c-1.1.44-1.68,1-1.75,1.64a2.88,2.88,0,0,0,.36,1.24,9.42,9.42,0,0,0,.88,1.36,9.29,9.29,0,0,1,1.14,1.75,3.87,3.87,0,0,1,.43,1.67,2.58,2.58,0,0,1-.33,1.09,3.48,3.48,0,0,1-.7,1,8.52,8.52,0,0,1-1.37.9,17.21,17.21,0,0,1-1.64.8,5.24,5.24,0,0,1-.85.28,3.22,3.22,0,0,1-.72.09A4.41,4.41,0,0,1,64.72,77a1.74,1.74,0,0,1-1.07-1.08,1.34,1.34,0,0,1,.06-.44.89.89,0,0,1,.27-.42,5.37,5.37,0,0,1,.82-.75,3.74,3.74,0,0,1,.67-.38A.86.86,0,0,1,66,73.8a.89.89,0,0,1,.52.22,3.3,3.3,0,0,0,.56.18,3.1,3.1,0,0,0,.68.06,1,1,0,0,0,.63-.19.51.51,0,0,0,.23-.38,2,2,0,0,0-.26-.82,6.42,6.42,0,0,0-.69-1.09,10.83,10.83,0,0,1-.72-1.11c-.27-.45-.48-.84-.64-1.17a6.88,6.88,0,0,1-.28-.84,3.53,3.53,0,0,1-.13-.87,4,4,0,0,1,.79-2.19,8.24,8.24,0,0,1,1.68-1.79,7.76,7.76,0,0,1,2.37-1.3A7.64,7.64,0,0,1,73.14,62Zm61.39.37a1.56,1.56,0,0,1,1.22.58,3.6,3.6,0,0,1,.65,1.22,3.9,3.9,0,0,1,.19,1,10.9,10.9,0,0,1-.6,3.33,10.19,10.19,0,0,1-.72,1.65c-.06.12-.08.2-.05.22s.11,0,.26-.05.6-.32,1.28-.71,1.47-.86,2.38-1.42,1.79-1.13,2.65-1.73q.92-.6,1,0a2.47,2.47,0,0,1-.73,1.68,20.33,20.33,0,0,1-3,2.49,35.31,35.31,0,0,1-3.46,2.14,21.6,21.6,0,0,1-2.88,1.33,12.53,12.53,0,0,0-1.17.48,11.46,11.46,0,0,0-1,.57,17.71,17.71,0,0,1-2,.93,11.65,11.65,0,0,1-2.08.69l-.46.09-.37,0a.86.86,0,0,1-.46-.19,2.17,2.17,0,0,1-.41-.38.2.2,0,0,0-.31.07,1.67,1.67,0,0,0-.22.42l-.46,1.26-.9,2.49-.94,2.6-.6,1.58a1.16,1.16,0,0,0-.1.61.49.49,0,0,0,.27.33,2.4,2.4,0,0,0,.93.22c.46.05,1.15.09,2.08.11a2.14,2.14,0,0,1,.69.12q.19.09.18.24a1,1,0,0,1-.3.5,2.23,2.23,0,0,1-.85.6,26.76,26.76,0,0,1-2.92.94,11.38,11.38,0,0,1-2.66.4,1.27,1.27,0,0,1-.6-.14,1.31,1.31,0,0,1-.47-.47,1.25,1.25,0,0,1-.18-.61,2.66,2.66,0,0,1,.13-.85c.11-.27.44-1.21,1-2.83s1.28-3.68,2.1-6.2,1.66-5.26,2.5-8.24c.4-1.47.7-2.57.88-3.29s.33-1.33.44-1.81a10.68,10.68,0,0,1,.45-1.38,2.71,2.71,0,0,1,.54-.85,4.31,4.31,0,0,1,1.08-.79,2.84,2.84,0,0,1,1.2-.35,2.16,2.16,0,0,1,.88.18,1.75,1.75,0,0,1,.64.43.73.73,0,0,1,.26.48.63.63,0,0,1-.21.45,4.05,4.05,0,0,0-1,1.42,20.55,20.55,0,0,0-.8,2c-.1.26-.09.41,0,.44s.27,0,.48-.2c.35-.35.94-.87,1.78-1.56a13.56,13.56,0,0,1,2.85-1.8,6.08,6.08,0,0,1,1.11-.42,3.34,3.34,0,0,1,.75-.11Zm-1.94,3.49a1.39,1.39,0,0,0-.71.22,14.24,14.24,0,0,0-1.48,1,16.27,16.27,0,0,0-3.22,3.21,10.93,10.93,0,0,0-1.61,3,.58.58,0,0,0-.06.46q.09.15.51.15a4,4,0,0,0,1.17-.24,11.76,11.76,0,0,0,1.52-.61,6.65,6.65,0,0,0,1.3-.83,7.32,7.32,0,0,0,.84-.79,11.43,11.43,0,0,0,1.38-2.12,6.42,6.42,0,0,0,.85-2.54,1.13,1.13,0,0,0-.17-.68c-.1-.14-.21-.22-.32-.21Zm-31.4-.77a1.38,1.38,0,0,0-.81.42A12.33,12.33,0,0,0,99,67a15.52,15.52,0,0,0-1.84,2.7,10.35,10.35,0,0,0-1,2.3,1.76,1.76,0,0,0,0,.75c0,.22.15.34.32.35a1.36,1.36,0,0,0,.67-.27,7.27,7.27,0,0,0,.9-.66,9,9,0,0,0,1.06-1.07l1.46-1.7a9.83,9.83,0,0,0,.86-1.17q.4-.64.54-.9a2.1,2.1,0,0,0,.27-.68,1.38,1.38,0,0,0,0-.67,1.46,1.46,0,0,0-.34-.56.88.88,0,0,0-.65-.29Zm-12-2.8a1.17,1.17,0,0,1,1,.44,1.26,1.26,0,0,1,0,1.23l-.69,1.69c-.33.82-.69,1.74-1.06,2.77s-.69,2-.94,2.94a4.42,4.42,0,0,0-.2,1.73c.06.39.24.58.53.58a4.88,4.88,0,0,0,2.5-1.24,27.89,27.89,0,0,0,2.86-2.62c.49-.52.92-1,1.28-1.4a17,17,0,0,1,1.19-1.63,23.29,23.29,0,0,1,2.52-2.62,9.69,9.69,0,0,1,2.94-1.79,5,5,0,0,1,1.57-.33,1.19,1.19,0,0,1,.76.31,3.26,3.26,0,0,1,.52.55.24.24,0,0,0,.2.19.52.52,0,0,0,.33-.11,1,1,0,0,1,.48-.26.69.69,0,0,1,.51.14c.55.32.85.61.9.86a1,1,0,0,1-.07.64A23.33,23.33,0,0,0,105,68.05a14.78,14.78,0,0,0-.51,3.69,3.17,3.17,0,0,0,.29,1.53.79.79,0,0,0,.74.46,5.68,5.68,0,0,0,2.57-1.68,30.49,30.49,0,0,0,3-3.33c.13-1,.24-1.88.3-2.67a6.74,6.74,0,0,1,.48-1.94,2.82,2.82,0,0,1,.85-1,5.44,5.44,0,0,1,.91-.63,2.06,2.06,0,0,1,.94-.3,1.32,1.32,0,0,1,1,.51,1.76,1.76,0,0,1,.41,1.07,1.63,1.63,0,0,1-.2.63c-.13.23-.27.47-.42.71a8.7,8.7,0,0,0-.71,1.78,15.17,15.17,0,0,0-.53,2.17c0,.2,0,.29.09.28s.21-.1.36-.28c.25-.38.69-1,1.3-1.92a22.55,22.55,0,0,1,2-2.52,11.32,11.32,0,0,1,2-1.83,4,4,0,0,1,2.31-.81,1.76,1.76,0,0,1,1.2.47,1.26,1.26,0,0,1,.37,1.12,4.3,4.3,0,0,1-.36,1,3.62,3.62,0,0,1-.59.85,1.9,1.9,0,0,1-.7.55.62.62,0,0,1-.58,0,3.54,3.54,0,0,0-.48-.23,1.54,1.54,0,0,0-.51-.1,1.65,1.65,0,0,0-.9.45,10.13,10.13,0,0,0-1.37,1.46,27.09,27.09,0,0,0-2,2.79c-.65,1-1.21,2-1.69,2.85s-.81,1.56-1,2a3.13,3.13,0,0,1-.75,1.19,1.36,1.36,0,0,1-.94.4,2.37,2.37,0,0,1-1.78-.94,1.5,1.5,0,0,1-.42-.75,1.86,1.86,0,0,1,.14-1c.15-.41.28-.82.41-1.23a16.72,16.72,0,0,1-3.21,2.91,5.65,5.65,0,0,1-2.94,1.12,2.57,2.57,0,0,1-1.91-.86,3.59,3.59,0,0,1-.89-2.1c0-.3-.07-.56-.08-.78s0-.43,0-.65,0-.27-.11-.29-.14,0-.26.17a22.67,22.67,0,0,1-1.67,1.58c-.81.71-1.54,1.29-2.17,1.75a7.49,7.49,0,0,1-1.52.9,3.45,3.45,0,0,1-1.33.28,2.31,2.31,0,0,1-1.24-.62,2.37,2.37,0,0,1-.87-1.77,4.26,4.26,0,0,1,.1-.92,21.42,21.42,0,0,1-2.86,2.29,6.94,6.94,0,0,1-3.41,1.35,1.59,1.59,0,0,1-1.61-1.1c-.34-.76-.33-2.18,0-4.23.2-1.09.39-2,.56-2.68a18,18,0,0,1,.59-2c.12-.32.12-.49,0-.5s-.32.1-.62.33a17.71,17.71,0,0,0-2.4,2.28c-.75.85-1.4,1.65-1.94,2.4s-.9,1.29-1.11,1.62a9.44,9.44,0,0,0-.63,1.16,2.49,2.49,0,0,0-.23.8,1.58,1.58,0,0,1-.77,1.23,2.63,2.63,0,0,1-1.38.35c-.45,0-.8-.31-1.06-.89a4,4,0,0,1-.18-2.2c.07-.34.27-1.11.61-2.32s.74-2.61,1.22-4.2,1-3.11,1.43-4.58c.65-1.9,1.36-3.75,2.15-5.54a11,11,0,0,1,1.12-2.4,3.82,3.82,0,0,1,.81-.94,1.2,1.2,0,0,1,.72-.28,1.59,1.59,0,0,1,.68.22,3.61,3.61,0,0,1,.93.76,2.05,2.05,0,0,1,.53.92,1.25,1.25,0,0,1-.37,1,10.74,10.74,0,0,0-1.81,3.16,53,53,0,0,0-2,5.17c-.52,1.58-.84,2.65-1,3.23-.06.23-.07.38,0,.45s.15,0,.3-.17a21.82,21.82,0,0,1,2-2A31.7,31.7,0,0,1,85,64.14a14.24,14.24,0,0,1,2-1.3,4.61,4.61,0,0,1,2.11-.53ZM155,62a4.53,4.53,0,0,1,1.28.15,3.3,3.3,0,0,1,.91.42,1.68,1.68,0,0,1,.55.59,1.5,1.5,0,0,1,.15.67,1,1,0,0,1-.4.84,1.61,1.61,0,0,1-.92.26,10,10,0,0,0-3.67.68c-1.1.44-1.68,1-1.75,1.64a2.88,2.88,0,0,0,.36,1.24,9.42,9.42,0,0,0,.88,1.36,8.82,8.82,0,0,1,1.14,1.75,3.87,3.87,0,0,1,.43,1.67,2.58,2.58,0,0,1-.33,1.09,3.48,3.48,0,0,1-.7,1,8.52,8.52,0,0,1-1.37.9,17.21,17.21,0,0,1-1.64.8,5.24,5.24,0,0,1-.85.28,3.08,3.08,0,0,1-.72.09,4.41,4.41,0,0,1-1.78-.42,1.74,1.74,0,0,1-1.07-1.08,1.67,1.67,0,0,1,.06-.44.89.89,0,0,1,.27-.42,5.37,5.37,0,0,1,.82-.75,3.74,3.74,0,0,1,.67-.38.83.83,0,0,1,1,.08,3.61,3.61,0,0,0,.56.18,3.1,3.1,0,0,0,.68.06,1,1,0,0,0,.63-.19.51.51,0,0,0,.23-.38,2.1,2.1,0,0,0-.25-.82,7.25,7.25,0,0,0-.7-1.09,12.83,12.83,0,0,1-.72-1.11c-.27-.45-.48-.84-.64-1.17a6.88,6.88,0,0,1-.28-.84,3.3,3.3,0,0,1,.66-3.06,8,8,0,0,1,1.69-1.79A8.53,8.53,0,0,1,155,62Zm1.42,11.51a7.5,7.5,0,0,1,.22-1.76,16.47,16.47,0,0,1,.77-2.27,17.56,17.56,0,0,1,1.14-2.08,16.64,16.64,0,0,1,1.05-1.49,7.25,7.25,0,0,0,.46-.67,2.13,2.13,0,0,0,.24-.88,1.41,1.41,0,0,1,.18-.61,2.28,2.28,0,0,1,.36-.49,2,2,0,0,1,.47-.35,1.32,1.32,0,0,1,.6-.13,1.28,1.28,0,0,0,.67-.16,2.66,2.66,0,0,0,.57-.45,2.73,2.73,0,0,1,.91-.62,2.54,2.54,0,0,1,1-.2c.76,0,1.23.23,1.42.58a1.79,1.79,0,0,1,.24,1,.52.52,0,0,0,.05.29.59.59,0,0,0,.28.2,3.42,3.42,0,0,1,1.58,1.73,5.88,5.88,0,0,1,.48,2.37,7.26,7.26,0,0,1-.52,2.63A9.42,9.42,0,0,1,166.81,73a12.3,12.3,0,0,1-3.45,2.84,8.88,8.88,0,0,1-4.2,1.1,2.44,2.44,0,0,1-1.91-1,3.83,3.83,0,0,1-.81-2.42Zm3.88-.73a1.63,1.63,0,0,0,.29,1,.8.8,0,0,0,.58.34,1.8,1.8,0,0,0,.92-.27,4.42,4.42,0,0,0,1.1-.91,8.86,8.86,0,0,0,1.21-1.78,14.85,14.85,0,0,0,1-2.21,6.36,6.36,0,0,0,.41-1.87,4.26,4.26,0,0,0-.24-1.46.9.9,0,0,0-.8-.69.84.84,0,0,0-.49.22,2.92,2.92,0,0,0-.46.47,18.36,18.36,0,0,0-2.45,3.75,8.67,8.67,0,0,0-1.06,3.41Zm43.68.89a6.28,6.28,0,0,0,2.34-.6,16.78,16.78,0,0,0,2-1.06c.48-.27.76-.23.83.1a1.33,1.33,0,0,1-.41,1.12,10.36,10.36,0,0,1-1.91,1.53,16.74,16.74,0,0,1-3.83,1.76,6.43,6.43,0,0,1-1,.25,4.81,4.81,0,0,1-.83.07,3.09,3.09,0,0,1-1.77-.6,2.12,2.12,0,0,1-.87-1.67,3.21,3.21,0,0,1,.1-.78,9.82,9.82,0,0,1,.35-1l.16-.44a18.29,18.29,0,0,1-2,1.82A13.84,13.84,0,0,1,194.41,76a11,11,0,0,1-1.66.64,5.24,5.24,0,0,1-1.27.21,1.52,1.52,0,0,1-1.43-1,4.62,4.62,0,0,1-.09-2.75c.06-.32.12-.6.18-.85l.19-.69c0-.23,0-.38-.07-.45s-.21,0-.34.08c-.38.41-1.13,1.11-2.26,2.1A31,31,0,0,1,184,76.05a4.72,4.72,0,0,1-1.16.54,3.54,3.54,0,0,1-1,.15,1.58,1.58,0,0,1-1.19-.79,3.3,3.3,0,0,1-.54-1.77,6,6,0,0,1,.2-1.46c0-.16.09-.35.15-.56a20.64,20.64,0,0,1-3.91,3.27,8,8,0,0,1-4.05,1.43,1.92,1.92,0,0,1-1.5-.77,3,3,0,0,1-.6-1.87,14.14,14.14,0,0,1,.6-3.46,63.88,63.88,0,0,1,2.7-7.76c1.25-3.08,2.25-5.41,3-7a6.28,6.28,0,0,1,1.07-1.88,1.8,1.8,0,0,1,.56-.47,1.16,1.16,0,0,1,.52-.14,1,1,0,0,1,.74.29,2.13,2.13,0,0,1,1,1.57,1.28,1.28,0,0,1-.18,1,75.36,75.36,0,0,0-3.7,8.26q-1.42,3.81-2.13,6.18a5,5,0,0,0-.33,2.13c.1.39.32.57.66.55a6.48,6.48,0,0,0,3-1.61,28.2,28.2,0,0,0,4-4c.32-.82.65-1.57,1-2.24.53-1.1.93-1.88,1.2-2.35a2.51,2.51,0,0,1,.69-.69,1.41,1.41,0,0,1,.76-.24,2.67,2.67,0,0,1,1.52.6,1.68,1.68,0,0,1,.75,1.15,3.45,3.45,0,0,1-.46,1.21,10.4,10.4,0,0,1-.74,1.19,6.59,6.59,0,0,1-.64.65,2.35,2.35,0,0,0-.56.65A9.58,9.58,0,0,0,185,69c-.19.47-.4,1.11-.64,1.92a2.9,2.9,0,0,0-.2,1.37.45.45,0,0,0,.49.38c.22,0,.63-.25,1.22-.77s1.38-1.3,2.37-2.36a34.28,34.28,0,0,0,2.66-3.56c.79-1.2,1.37-2.12,1.76-2.74a4.06,4.06,0,0,1,.89-1,1.19,1.19,0,0,1,.76-.29,1.84,1.84,0,0,1,1.38.76,1.5,1.5,0,0,1,.23,1.56c-.08.18-.19.39-.32.64l-.51,1a22.61,22.61,0,0,0-1.19,3.07,18,18,0,0,0-.71,3,2.82,2.82,0,0,0,0,1,.53.53,0,0,0,.57.37,4.16,4.16,0,0,0,2-.91,26.77,26.77,0,0,0,2.69-2.2c.77-.7,1.49-1.42,2.17-2.14l.36-1a.48.48,0,0,0,.05-.33c0-.07-.14-.1-.34-.08l-.65.07-.8.09a1,1,0,0,1-.59-.11,2.58,2.58,0,0,1-.44-.29.78.78,0,0,1-.19-.6,1.14,1.14,0,0,1,.27-.66,2.74,2.74,0,0,1,.52-.51,1.93,1.93,0,0,1,.68-.27l.89-.17L201.6,64a1.44,1.44,0,0,0,.47-.17.92.92,0,0,0,.32-.44c.08-.18.24-.59.49-1.25l.77-2c.27-.71.49-1.22.63-1.54a3,3,0,0,1,2.15-1.39,1.25,1.25,0,0,1,.53.11,1.64,1.64,0,0,1,.46.34,1.66,1.66,0,0,1,.52,1,1.73,1.73,0,0,1-.27,1.05A25.76,25.76,0,0,0,206.53,62l-.59,1.38c-.05.15,0,.24.11.26a1.59,1.59,0,0,0,.38,0c1,0,2.08-.06,3.26-.12s2.07-.08,2.69-.08c.47,0,.65.2.55.51a1.41,1.41,0,0,1-.63.75,11.44,11.44,0,0,1-2.29.7c-1.17.28-2.68.55-4.53.8a1.59,1.59,0,0,0-.58.18,1.19,1.19,0,0,0-.33.43q-.47,1.05-1,2.49A15.77,15.77,0,0,0,203,71.7a2.77,2.77,0,0,0,0,1.46,1,1,0,0,0,1,.53Zm13.3-19.84a2.89,2.89,0,0,1,1.59.41,1.1,1.1,0,0,1,.52,1.17,15.94,15.94,0,0,0-.22,1.84c0,.54,0,1.06,0,1.54s-.14.63-.39.69a1.6,1.6,0,0,1-1-.12,3.06,3.06,0,0,1-1.15-.75,2.54,2.54,0,0,1-.63-1,5.84,5.84,0,0,1-.16-.83,6.48,6.48,0,0,1,0-1.2,2.09,2.09,0,0,1,.43-1.33,1.35,1.35,0,0,1,1.05-.38Zm2.16,19.68c0-.21,0-.41,0-.62q-1,1-2,1.8a11.54,11.54,0,0,1-2.74,1.7,9.46,9.46,0,0,1-1.39.44,5.23,5.23,0,0,1-1.13.13,1.73,1.73,0,0,1-1-.34,3.13,3.13,0,0,1-1-1.28,2.53,2.53,0,0,1-.29-1.13,4.09,4.09,0,0,1,.21-1.31q.21-.83.6-2.07c.27-.83.49-1.45.67-1.88a1.83,1.83,0,0,0,.16-.66.93.93,0,0,0-.16-.51,1.66,1.66,0,0,1-.15-.58,1.86,1.86,0,0,1,.15-.77,8.19,8.19,0,0,1,1.19-1.87,11.48,11.48,0,0,1,1.73-1.75,3,3,0,0,1,1.54-.77,1.18,1.18,0,0,1,.71.25,1.8,1.8,0,0,1,.62.9,1.5,1.5,0,0,1-.09,1.17,34.79,34.79,0,0,0-1.76,3.45A40.56,40.56,0,0,0,213.75,72a2.83,2.83,0,0,0-.22,1.38c.06.3.28.45.67.45a4.74,4.74,0,0,0,2.08-1,32.58,32.58,0,0,0,2.91-2.42c.57-.54,1.11-1.06,1.61-1.57.24-.46.5-.91.79-1.36.43-.67.78-1.16,1-1.49a4.7,4.7,0,0,0,.46-.67,2,2,0,0,0,.25-.88,1.56,1.56,0,0,1,.17-.61,3.24,3.24,0,0,1,.36-.49,2,2,0,0,1,.48-.35,1.26,1.26,0,0,1,.6-.13,1.24,1.24,0,0,0,.66-.16,2.47,2.47,0,0,0,.58-.45,2.8,2.8,0,0,1,.9-.62,2.62,2.62,0,0,1,1-.2c.76,0,1.23.23,1.41.58a1.79,1.79,0,0,1,.24,1,.62.62,0,0,0,.06.29.56.56,0,0,0,.27.2,3.39,3.39,0,0,1,1.59,1.73,5.87,5.87,0,0,1,.47,2.37,7.06,7.06,0,0,1-.52,2.63A9,9,0,0,1,229.82,73a12.3,12.3,0,0,1-3.45,2.84,8.84,8.84,0,0,1-4.19,1.1,2.48,2.48,0,0,1-1.92-1,3.88,3.88,0,0,1-.8-2.42Zm3.88-.73a1.63,1.63,0,0,0,.29,1,.77.77,0,0,0,.57.34,1.8,1.8,0,0,0,.92-.27,4.45,4.45,0,0,0,1.11-.91,9.29,9.29,0,0,0,1.21-1.78,17.23,17.23,0,0,0,1-2.21,6.29,6.29,0,0,0,.4-1.87,4,4,0,0,0-.23-1.46.91.91,0,0,0-.8-.69.84.84,0,0,0-.49.22,2.55,2.55,0,0,0-.46.47,18,18,0,0,0-2.45,3.75,8.67,8.67,0,0,0-1.06,3.41ZM260.19,62a4.53,4.53,0,0,1,1.28.15,3.11,3.11,0,0,1,.9.42,1.63,1.63,0,0,1,.56.59,1.5,1.5,0,0,1,.15.67,1,1,0,0,1-.4.84,1.61,1.61,0,0,1-.92.26,10,10,0,0,0-3.67.68c-1.1.44-1.68,1-1.75,1.64a2.88,2.88,0,0,0,.36,1.24,9.42,9.42,0,0,0,.88,1.36,9.29,9.29,0,0,1,1.14,1.75,3.87,3.87,0,0,1,.43,1.67,2.58,2.58,0,0,1-.33,1.09,3.48,3.48,0,0,1-.7,1,8.52,8.52,0,0,1-1.37.9,17.21,17.21,0,0,1-1.64.8,5.24,5.24,0,0,1-.85.28,3.15,3.15,0,0,1-.72.09,4.41,4.41,0,0,1-1.78-.42,1.74,1.74,0,0,1-1.07-1.08,1.67,1.67,0,0,1,.06-.44.89.89,0,0,1,.27-.42,5.37,5.37,0,0,1,.82-.75,3.74,3.74,0,0,1,.67-.38.83.83,0,0,1,1,.08,3.61,3.61,0,0,0,.56.18,3.1,3.1,0,0,0,.68.06,1,1,0,0,0,.63-.19.51.51,0,0,0,.23-.38,2.1,2.1,0,0,0-.25-.82,7.25,7.25,0,0,0-.7-1.09,12.83,12.83,0,0,1-.72-1.11c-.15-.26-.29-.49-.41-.71a19.3,19.3,0,0,1-4.89,5.77,7,7,0,0,1-4,1.58,2.58,2.58,0,0,1-2.39-1.55,7,7,0,0,1-.21-4.51c.17-.77.32-1.42.47-2s.28-1,.4-1.33.14-.41.18-.55a.41.41,0,0,0,0-.3c-.06-.09-.16-.08-.29,0a4.87,4.87,0,0,0-.66.56,40.14,40.14,0,0,0-3.36,3.67q-1.57,1.94-3,4a1.92,1.92,0,0,1-.64.66.87.87,0,0,1-.48.15A1.16,1.16,0,0,1,234,76a2.39,2.39,0,0,1-.55-.55,1.46,1.46,0,0,1-.24-.83,3.89,3.89,0,0,1,.12-1.2c.53-2.42,1.08-4.52,1.63-6.31a31.4,31.4,0,0,1,1.38-3.82,3.83,3.83,0,0,1,1.19-1.52,2.16,2.16,0,0,1,1.21-.39,1.85,1.85,0,0,1,1.43.76,2.37,2.37,0,0,1,.55,1.4.53.53,0,0,1-.49.53.79.79,0,0,0-.56.28,3.66,3.66,0,0,0-.56.77,8.65,8.65,0,0,0-.68,1.6L238,68.12c-.08.23-.06.37,0,.41s.26,0,.45-.29c.43-.46,1.12-1.13,2.06-2A25.47,25.47,0,0,1,243,64.18c.54-.4.94-.67,1.19-.84a6.56,6.56,0,0,1,.63-.38,2.28,2.28,0,0,0,.31-.28,2.13,2.13,0,0,0,.35-.49,1.63,1.63,0,0,1,.41-.45.89.89,0,0,1,.54-.16,2.28,2.28,0,0,1,.7.11,1.94,1.94,0,0,1,.58.33,1.66,1.66,0,0,1,.57,1,2.19,2.19,0,0,1-.2,1c-.09.18-.22.44-.4.77s-.36.69-.55,1.1c-.34.74-.68,1.59-1,2.54s-.62,1.86-.84,2.7a4.83,4.83,0,0,0-.13,2.54c.2.5.48.73.83.72A4.1,4.1,0,0,0,248,73.41a28.36,28.36,0,0,0,2.72-2.51c.79-.82,1.54-1.63,2.25-2.45a3.13,3.13,0,0,1-.08-.66,4,4,0,0,1,.79-2.19,8,8,0,0,1,1.69-1.79A8.53,8.53,0,0,1,260.19,62Z" fill="#191817"/></svg>