<svg width="112" height="50" viewBox="0 0 112 50" fill="none" xmlns="http://www.w3.org/2000/svg">
<mask id="path-1-outside-1_27_41" maskUnits="userSpaceOnUse" x="3.05176e-05" y="-0.999817" width="112" height="51" fill="black">
<rect fill="white" x="3.05176e-05" y="-0.999817" width="112" height="51"/>
<path fill-rule="evenodd" clip-rule="evenodd" d="M18.5649 1.81675C18.4796 2.26579 17.814 5.65533 17.0859 9.34892C15.4807 17.4924 15.5011 17.3565 15.715 18.4923C16.1397 20.7468 17.5951 22.0773 19.6342 22.0753C20.3594 22.0746 20.6173 22.0115 21.0439 21.7304C21.6711 21.3168 22.3561 20.3942 22.6489 19.5682C22.8032 19.1328 26.2126 1.41543 26.2126 1.04875C26.2126 1.02205 24.5268 1.00018 22.4664 1.00018H18.7202L18.5649 1.81675ZM29.2506 12.6101C28.0214 18.9951 26.8873 24.8741 26.7304 25.6747L26.4452 27.1304H31.8917H37.3381L37.6228 26.0893C37.7793 25.5167 37.9074 25.0054 37.9074 24.9532C37.9074 24.9009 36.7092 24.8582 35.2447 24.8582C33.7803 24.8582 32.5821 24.8173 32.5821 24.7673C32.5821 24.6977 36.7325 2.83299 37.033 1.31971L37.0964 1.00018L34.2911 1.00061L31.4857 1.00089L29.2506 12.6101ZM98.7895 1.53273C98.7301 1.8257 97.6145 7.1936 96.3104 13.4617L93.9392 24.8582H91.7145C90.491 24.8582 89.4899 24.8367 89.4899 24.8105C89.4899 24.7842 90.0303 21.9564 90.6906 18.5264C91.8617 12.4441 91.9003 12.2788 92.2553 11.8286L92.6194 11.367H93.853H95.0866L95.3164 10.3049C95.6798 8.6248 95.9817 8.78442 92.5441 8.83909C89.213 8.89207 88.8881 8.96918 87.8908 9.94324C87.1405 10.676 87.2462 10.2808 84.8325 21.3789C84.5239 22.798 84.3394 23.919 84.3412 24.3648C84.3453 25.4644 84.7029 26.1999 85.522 26.7942C85.8658 27.0436 86.2736 27.0618 92.3795 27.099C98.5265 27.1365 98.8745 27.1251 98.9271 26.886C98.9576 26.7471 99.6694 23.3102 100.509 19.2487C101.348 15.1872 102.109 11.7522 102.2 11.6156C102.447 11.2451 104.519 11.2483 104.766 11.6197C104.964 11.9169 105.094 11.1451 103.265 20.5044C102.58 24.0068 102.02 26.9305 102.02 27.0014C102.02 27.0765 103.798 27.1304 106.281 27.1304H110.541L110.771 26.1617C110.897 25.629 111 25.1178 111 25.0256C111 24.906 110.627 24.8582 109.695 24.8582C108.74 24.8582 108.39 24.8119 108.39 24.6856C108.39 24.5906 108.936 21.8005 109.603 18.4854C110.629 13.388 110.807 12.3528 110.757 11.778C110.654 10.5983 110.229 9.73135 109.486 9.18759C109.091 8.89874 108.891 8.87786 105.869 8.81083L102.67 8.73983L103.439 5.04752C103.862 3.01675 104.209 1.2754 104.211 1.1777C104.212 1.04023 103.613 1.00018 101.555 1.00018H98.8973L98.7895 1.53273ZM25.2728 2.111C25.2728 2.42584 22.1044 18.7406 21.9665 19.1358C21.7268 19.8227 20.9708 20.6982 20.453 20.8885C20.2031 20.9804 19.6436 21.0274 19.2065 20.9932C18.5467 20.9418 18.3009 20.8476 17.7447 20.4332C16.2845 19.3456 16.1071 18.2276 16.8123 14.5585C17.6161 10.3772 19.238 2.20842 19.2859 2.10077C19.3509 1.95493 25.2728 1.96501 25.2728 2.111ZM44.1909 8.96279C43.1671 9.23673 42.0671 10.1841 41.7165 11.0937C41.639 11.2949 40.9381 14.2212 40.1592 17.5968C38.6095 24.3114 38.5363 24.817 38.9639 25.8517C39.0858 26.1466 39.3788 26.5377 39.6165 26.7231L40.048 27.0594H45.2167C50.0363 27.0594 50.4199 27.0412 50.8974 26.7908C51.4617 26.4947 52.147 25.7269 52.3698 25.1409C52.6126 24.5023 55.3452 12.2856 55.3452 11.8387C55.3452 10.5601 54.7617 9.31824 53.9983 8.97188C53.5753 8.78002 44.904 8.77192 44.1909 8.96279ZM57.3468 9.76941C57.2305 10.2967 56.3516 14.3354 55.3937 18.7444C54.4357 23.1535 53.6286 26.8441 53.5999 26.9456C53.558 27.0941 54.0579 27.1304 56.1547 27.1304H58.7615L59.7793 22.2665C60.9283 16.7753 60.7411 17.2689 62.3934 15.3748C63.7561 13.8126 64.921 12.84 65.1143 13.103C65.1506 13.1523 64.0606 18.8008 63.6332 20.778C63.5822 21.0139 63.7243 21.0268 65.9586 20.991L68.3383 20.9528L68.8952 18.6097C70.5419 11.6822 70.5677 11.4098 69.7007 10.1047C69.1483 9.27308 68.6102 9.04089 67.4315 9.12567C65.9293 9.23375 64.9544 9.85888 62.8883 12.039C62.279 12.6819 61.763 13.1841 61.7414 13.1548C61.7103 13.1125 62.2649 10.1519 62.5087 9.05935C62.5604 8.82745 62.3965 8.81083 60.0613 8.81083H57.5584L57.3468 9.76941ZM74.3677 8.96009C73.6753 9.14953 72.7736 9.76302 72.3362 10.3423C71.9026 10.9163 71.605 12.0469 69.7644 20.1096C68.8764 23.9997 68.7657 24.8938 69.0724 25.7004C69.284 26.2567 69.7917 26.8074 70.2541 26.9821C70.4949 27.0731 72.4497 27.1291 75.4006 27.1295C80.6107 27.1305 80.7534 27.1113 81.6675 26.2877C81.9258 26.055 82.2411 25.6128 82.3684 25.3048C82.4957 24.9968 83.2366 21.9425 84.015 18.5175C85.2938 12.89 85.4255 12.2123 85.3822 11.4828C85.3231 10.4884 84.9797 9.61547 84.4818 9.19441C84.1168 8.88553 84.0577 8.88156 79.4658 8.85912C76.9101 8.84662 74.616 8.89206 74.3677 8.96009ZM8.61647 18.6311C4.48246 23.1627 1.05546 26.9287 1.00085 27.0003C0.940808 27.0791 4.19291 27.1301 9.24987 27.1297L17.5981 27.1291L18.0515 24.989C18.3008 23.8118 18.4888 22.8305 18.4691 22.8082C18.4495 22.7861 18.1581 22.652 17.8214 22.5106C16.6461 22.0162 15.6402 20.9029 15.2273 19.6391C14.7804 18.2714 14.8426 17.3572 15.6689 13.1572C15.9588 11.6836 16.1819 10.4586 16.1644 10.435C16.1471 10.4114 12.7505 14.0996 8.61647 18.6311ZM49.3623 11.5308C49.5461 11.6066 49.7246 11.7881 49.7586 11.9342C49.7928 12.0804 49.4402 14.0414 48.9752 16.2923C48.5102 18.5432 47.9608 21.2156 47.7542 22.231C47.5478 23.2463 47.2879 24.2146 47.1767 24.3827C46.8102 24.9368 45.3525 25.1983 44.6051 24.844C44.2037 24.6537 44.1141 24.2653 44.2773 23.4216C44.7136 21.1667 46.4969 12.5023 46.5915 12.1782C46.6551 11.9604 46.8064 11.7077 46.9278 11.6167C47.4062 11.2576 48.5977 11.2155 49.3623 11.5308ZM79.5441 11.5328C79.7565 11.6205 79.9042 11.7887 79.9389 11.9817C79.9846 12.2372 79.4635 14.884 77.669 23.5091C77.4987 24.3273 77.2202 24.6801 76.5939 24.8707C75.4894 25.2068 74.3493 24.8506 74.3493 24.1693C74.3493 23.952 76.2764 14.3788 76.6616 12.6829C76.7937 12.1011 76.9419 11.738 77.0939 11.6232C77.5785 11.2577 78.7722 11.2137 79.5441 11.5328ZM33.6389 30.0941C33.0112 31.008 30.807 39.8068 30.807 41.3986C30.807 42.0629 31.2172 42.6751 31.5658 42.5307C31.9211 42.3834 32.1533 42.0479 32.2586 41.5295C32.4094 40.7865 33.2964 39.0933 34.1317 37.9536C34.5534 37.3784 34.9218 36.9397 34.9505 36.9787C34.9791 37.0177 34.9004 37.5816 34.7754 38.232C34.6504 38.8823 34.5234 39.9895 34.4933 40.6925C34.4429 41.8672 34.4576 42.0034 34.6749 42.3758C34.8853 42.7363 34.9568 42.7711 35.3226 42.6916C35.8692 42.5727 36.4185 42.1782 37.1204 41.4007L37.6986 40.7602V41.2273C37.6986 42.186 38.2888 42.7223 38.9856 42.3965C39.4123 42.197 40.2709 41.3398 40.8255 40.5596C41.0234 40.2812 41.2171 40.0534 41.256 40.0534C41.2948 40.0534 41.3489 40.3693 41.3763 40.7554C41.4373 41.6198 41.6792 42.146 42.1347 42.4049C42.6574 42.7018 43.3333 42.3766 44.1898 41.4158L44.8818 40.6395L44.8277 41.1878C44.7827 41.6434 44.819 41.7978 45.0426 42.1018C45.3582 42.531 45.8388 42.5855 46.0764 42.2191C46.1651 42.0825 46.4136 41.4913 46.6288 40.9055C47.1729 39.4238 48.0362 37.6848 48.5957 36.9438C49.0526 36.3387 49.0773 36.3251 49.395 36.504C49.703 36.6775 49.7414 36.6633 50.0312 36.2694C50.4142 35.7485 50.5356 34.9525 50.2842 34.6107C50.0876 34.3433 49.647 34.3028 49.2377 34.5145C48.8117 34.7348 47.8565 36.0366 47.2264 37.2557C46.9116 37.8649 46.6338 38.3359 46.6093 38.3026C46.5282 38.1922 46.8098 36.8697 47.0595 36.1883C47.3549 35.3824 47.367 35.0614 47.114 34.75C46.8285 34.3985 46.4578 34.4646 46.0307 34.9434C45.6358 35.3861 45.525 35.8191 45.3703 37.5262C45.3158 38.1273 45.2242 38.3136 44.454 39.3884C43.5257 40.684 43.0934 40.9874 42.8355 40.5252C42.6024 40.1073 42.7375 38.3352 43.1171 36.8313C43.2956 36.1247 43.4416 35.4443 43.4416 35.3196C43.4416 35.0168 43.0618 34.7553 42.7677 34.8557C42.6088 34.9099 42.4695 34.8439 42.3436 34.6547C42.0956 34.2819 41.732 34.3011 41.0674 34.722C40.3911 35.1502 39.6743 36.0506 38.737 37.649C37.7281 39.3697 36.4759 40.7635 35.9391 40.7635C35.6555 40.7635 35.8683 39.2411 36.4335 37.2273C37.0515 35.0252 37.0835 34.702 36.6971 34.5701C36.0847 34.361 35.0083 35.1708 33.6524 36.8607C33.2359 37.3796 32.8953 37.744 32.8953 37.6705C32.8953 37.4046 33.6287 34.5326 33.9885 33.3892C34.191 32.7457 34.5024 31.9431 34.6805 31.6059C35.0552 30.8962 35.0305 30.5949 34.5524 30.0479C34.1477 29.5846 33.9832 29.593 33.6389 30.0941ZM72.2913 29.9009C72.0331 30.1468 71.6758 31.1334 70.7814 34.0701C69.3791 38.6744 68.9485 41.2399 69.4375 42.0771C69.6283 42.4037 69.7455 42.4674 70.1541 42.4662C70.862 42.4642 71.5885 41.9621 72.7478 40.6732L73.1485 40.2278V40.9812C73.1485 42.2518 73.7099 42.7775 74.485 42.2328C74.9945 41.8746 75.899 40.9385 76.5831 40.0614L77.1983 39.2724L77.1105 40.0534C76.8984 41.9384 77.1005 42.5399 77.9099 42.4341C78.559 42.3493 79.2739 41.8553 80.06 40.9483C80.6115 40.312 80.6981 40.251 80.6121 40.5587C80.4348 41.1929 80.4952 41.6173 80.8271 42.0687C81.1253 42.4743 81.1829 42.4965 81.7929 42.4408C82.9036 42.3394 84.7911 40.877 84.7911 40.1179C84.7911 39.6734 84.7182 39.6798 83.9816 40.1888C83.6479 40.4195 83.1811 40.6503 82.9444 40.7019C82.5716 40.783 82.4977 40.7543 82.3931 40.4886C82.1416 39.8497 82.8383 36.8359 83.2624 36.7278C85.1853 36.2373 85.7082 36.092 85.8654 36.0045C86.0319 35.9118 86.0279 35.9563 85.828 36.4172C85.6596 36.8051 85.6208 37.0571 85.6722 37.4289C85.7219 37.7895 85.6514 38.3007 85.4132 39.3083C85.0141 40.9968 85.0369 41.6354 85.5172 42.2191C85.694 42.4338 85.9536 42.6097 86.094 42.6097C86.5846 42.6097 87.5202 42.0109 88.2152 41.252L88.9156 40.4874L88.9874 41.043C89.149 42.2935 89.6759 42.7642 90.6144 42.4965C91.4594 42.2553 92.0455 41.8175 92.7884 40.8726C94.1525 39.1372 94.4613 36.8454 93.5061 35.5464C93.3133 35.2841 93.1238 34.9287 93.085 34.7567C92.9666 34.2312 92.8225 34.0889 92.4088 34.0889C92.1378 34.0889 91.9136 34.2016 91.7017 34.444C91.5311 34.6392 91.3129 34.799 91.217 34.799C90.8943 34.799 90.656 35.0773 90.5284 35.6034C90.2633 36.696 89.2987 38.4571 88.4126 39.4664C87.4391 40.5752 87.2099 40.7635 86.8341 40.7635C86.6386 40.7635 86.5662 40.6891 86.5662 40.488C86.5662 40.0588 87.0606 38.2722 87.5891 36.7916C88.103 35.3516 88.1398 35.0603 87.8609 34.6411C87.6061 34.2582 87.3771 34.3065 86.8492 34.8547C86.5815 35.1326 86.3326 35.2921 86.2609 35.2317C86.1926 35.1742 85.5519 35.1579 84.8374 35.1954C84.1227 35.2327 83.5381 35.2215 83.5381 35.1704C83.5381 35.1191 83.7301 34.5249 83.9647 33.8499C84.3237 32.8175 84.3736 32.5693 84.2789 32.2865C84.136 31.8599 83.7764 31.6756 83.4182 31.8453C83.0115 32.0381 82.8802 32.3061 82.4362 33.8504C82.2156 34.6174 81.9622 35.2969 81.873 35.3605C81.7838 35.424 81.5125 35.5207 81.27 35.5754C81.0277 35.6299 80.7105 35.8017 80.5652 35.9572C80.0248 36.5352 80.3871 37.1797 81.1582 37.012C81.5485 36.927 81.5664 36.9391 81.5026 37.2453C81.4251 37.6178 80.0285 39.5142 79.4116 40.0845C79.1819 40.297 78.877 40.4887 78.7339 40.5106C78.5097 40.5449 78.4693 40.4871 78.4412 40.0914C78.3938 39.4238 78.6831 38.0318 79.1642 36.6106C79.4161 35.8669 79.5599 35.2622 79.5226 35.1028C79.4187 34.6574 79.0886 34.3483 78.7701 34.3978C78.5202 34.4367 78.3437 34.7107 77.6424 36.1481C76.7797 37.9166 75.2619 40.1954 74.9468 40.1954C74.8287 40.1954 74.767 40.0831 74.767 39.868C74.767 39.3188 75.1975 37.732 75.4487 37.3552C75.8646 36.7315 76.2288 35.9051 76.2288 35.585C76.2288 35.2324 75.8758 34.7378 75.5189 34.5905C75.1057 34.42 74.7978 34.8622 74.1987 36.4868C73.7033 37.8302 73.5279 38.1555 72.8156 39.0517C71.9771 40.1068 71.3858 40.6215 71.0121 40.6215C70.8385 40.6215 70.7991 40.53 70.7991 40.1283C70.7991 39.2524 71.9316 35.0062 72.8336 32.5005C73.3733 31.0012 73.4142 30.5321 73.0488 30.0352C72.7517 29.631 72.6024 29.6045 72.2913 29.9009ZM87.9236 29.9307C87.6372 30.0635 87.506 30.4436 87.506 31.1409C87.506 32.0239 87.7168 32.5704 88.1706 32.8632C88.7473 33.2355 88.8308 33.1004 88.8903 31.7017C88.9336 30.6848 88.9128 30.4269 88.7726 30.2363C88.5798 29.9744 88.1574 29.8223 87.9236 29.9307ZM109.126 32.519C108.905 32.8196 108.544 34.2977 108.113 36.6622C107.832 38.2061 107.837 38.8559 108.132 39.0101C108.373 39.1358 108.809 38.664 108.982 38.0897C109.383 36.7592 110.086 34.9572 110.322 34.6561C110.637 34.2537 110.651 33.8339 110.373 33.094C110.048 32.228 109.519 31.9842 109.126 32.519ZM51.4499 34.0695C50.994 34.4782 50.9059 34.735 50.4918 36.8589C49.9833 39.4659 49.2258 42.8063 48.4547 45.8401C47.715 48.7508 47.7197 49.0002 48.5143 49.0002C49.4414 49.0002 51.0641 48.2399 51.0641 47.8054C51.0641 47.5423 50.8302 47.4381 50.2401 47.4381C49.3356 47.4381 49.3305 47.3808 50.0069 44.8818C50.3346 43.6712 50.634 42.5712 50.6721 42.4373C50.7334 42.222 50.7732 42.2163 51.0154 42.3871C51.3598 42.6301 51.7499 42.5007 52.8914 41.7648C53.3508 41.4686 54.1271 40.9734 54.6165 40.6642C56.2217 39.6504 57.836 38.0265 58.0436 37.2166C58.1871 36.6568 58.0392 36.548 57.6129 36.8998C57.4281 37.0522 56.8102 37.5674 56.2397 38.0447C55.6692 38.522 55.1848 38.8885 55.1633 38.8593C55.1418 38.83 55.1951 38.5754 55.2816 38.2935C55.5491 37.4227 55.6695 36.2346 55.551 35.636C55.4326 35.0379 55.0212 34.515 54.6691 34.515C54.2875 34.515 53.2427 35.3078 52.6042 36.0819C52.1491 36.6338 52.004 36.747 52.0049 36.55C52.0061 36.2221 52.4659 34.8662 52.6196 34.7371C52.7927 34.5915 52.7582 34.2155 52.552 34.0026C52.2911 33.7332 51.791 33.7635 51.4499 34.0695ZM66.6224 34.2182C66.1928 34.5447 65.8834 34.7479 65.5323 34.9341C65.3723 35.0188 65.2422 35.2435 65.1823 35.5383C65.1299 35.7965 64.8689 36.45 64.6022 36.9908C63.4315 39.3651 63.2798 41.6181 64.2389 42.3887C64.965 42.9721 66.5016 42.1833 67.5603 40.684C68.2897 39.6508 68.6059 38.7944 68.6825 37.6444C68.7466 36.6831 68.4721 35.6752 68.0418 35.2916C67.8928 35.159 67.771 34.9421 67.771 34.8098C67.771 34.1088 67.172 33.8004 66.6224 34.2182ZM96.0917 34.4099C95.6732 35.0159 95.1272 37.0845 94.6656 39.8137C94.4303 41.2049 94.4495 41.7042 94.7483 41.9706C94.8838 42.0913 95.0724 42.1495 95.1674 42.0998C95.2626 42.0503 95.6803 41.3937 96.0958 40.6409C96.8989 39.1863 98.2194 37.2132 98.3899 37.2132C98.4462 37.2132 98.4599 37.3251 98.4205 37.4617C98.381 37.5983 98.2592 38.1895 98.1498 38.7753C97.5539 41.9668 98.3811 43.4994 100.109 42.4052C100.734 42.0097 101.804 40.6172 102.326 39.5225L102.68 38.7783L103.081 39.6645C103.301 40.1517 103.482 40.6324 103.482 40.7324C103.482 41.0178 103.173 41.1079 102.737 40.9495C102.388 40.8227 102.292 40.8463 101.977 41.1373C101.306 41.7579 101.421 42.4559 102.246 42.7578C102.74 42.9387 103.214 42.7804 103.982 42.1782C105.081 41.3168 105.19 40.3995 104.383 38.7934C103.774 37.5803 103.71 37.2291 104.028 36.8237C104.338 36.4267 105.065 36.0771 105.579 36.0771C106.189 36.0771 106.51 35.8242 106.51 35.3422C106.51 34.7002 105.999 34.3386 105.202 34.4161C103.839 34.5485 102.438 36.1092 102.438 37.495C102.438 37.9003 102.297 38.1569 101.411 39.3617C99.9318 41.3729 99.3052 41.6391 99.3052 40.2564C99.3052 39.4867 99.7414 37.5836 100.205 36.3292C100.633 35.1718 100.649 34.7747 100.283 34.3833C99.9179 33.9927 99.7654 34.0117 99.4299 34.4896C99.2751 34.71 98.8432 35.1857 98.4699 35.5467C98.0966 35.9077 97.488 36.5901 97.1176 37.0631C96.7472 37.5363 96.4346 37.9233 96.4231 37.9233C96.3715 37.9233 96.6947 36.6314 96.8453 36.235C96.9372 35.9935 97.1288 35.692 97.2712 35.565C97.5869 35.2838 97.5994 34.9572 97.3136 34.4631C97.0269 33.9674 96.4158 33.9408 96.0917 34.4099ZM28.9797 34.72C28.559 34.959 28.1757 35.3259 27.813 35.8367C26.9577 37.0412 26.9514 37.8645 27.7843 39.591C28.0195 40.0787 28.1964 40.59 28.1773 40.7271C28.1351 41.0292 27.6712 41.1312 27.3621 40.9062C27.1858 40.7778 27.0744 40.8058 26.7813 41.0522C26.5819 41.2198 26.369 41.4834 26.3082 41.6377C26.0313 42.3415 26.957 43.0581 27.7527 42.7559C28.4011 42.5097 29.1666 41.8593 29.4291 41.3315C29.7772 40.6319 29.6915 39.9758 29.0977 38.7934C28.4884 37.5803 28.425 37.2291 28.7422 36.8237C29.0524 36.4273 29.7791 36.0771 30.2913 36.0771C30.9352 36.0771 31.2246 35.8648 31.2246 35.3926C31.2246 34.4088 30.1135 34.0759 28.9797 34.72ZM62.0494 34.6343C61.1077 35.0897 60.1928 36.3056 60.0799 37.2514C60.0173 37.7767 60.2774 38.6546 60.9411 40.158C61.0872 40.4888 61.1773 40.8244 61.1412 40.9035C61.0602 41.082 60.4626 41.0888 60.259 40.9137C60.0825 40.7618 59.6711 41.014 59.3788 41.4532C58.9579 42.0859 59.4833 42.8157 60.3599 42.816C60.8105 42.8163 61.8152 42.1671 62.2229 41.6126C62.7856 40.8473 62.7217 40.0742 61.9769 38.6356C61.4197 37.5593 61.374 37.0728 61.793 36.678C62.1893 36.3046 62.3857 36.2215 63.2047 36.0817C64.2435 35.9043 64.4933 35.4808 63.9605 34.8C63.6048 34.3454 62.7922 34.275 62.0494 34.6343ZM41.5689 36.2241C41.8588 36.4351 41.8187 36.9131 41.4434 37.7179C40.8742 38.9389 39.765 40.4795 39.4551 40.4795C39.3002 40.4795 39.3697 39.7108 39.5822 39.0741C39.8514 38.2671 40.6485 36.7494 41.0015 36.3718C41.3217 36.0292 41.3065 36.0332 41.5689 36.2241ZM67.2604 36.4676C67.4219 37.0377 67.3144 37.8017 66.9097 38.9608C66.3614 40.5313 65.681 41.3091 65.3041 40.7964C65.0651 40.4715 65.1742 39.6477 65.6178 38.427C66.098 37.1057 66.678 36.0771 66.943 36.0771C67.072 36.0771 67.1912 36.2239 67.2604 36.4676ZM92.6339 36.4676C92.7919 37.025 92.6933 37.7622 92.3095 38.895C91.9887 39.8416 91.4118 40.7705 91.0331 40.9501C90.9319 40.9981 90.7785 40.9336 90.6822 40.8025C90.3228 40.3137 90.794 38.4667 91.6974 36.8227C92.1655 35.9709 92.4613 35.8587 92.6339 36.4676ZM54.1553 36.8665C54.249 37.3748 53.5829 39.1663 53.0622 39.8061C52.6821 40.2731 51.6742 40.9055 51.3099 40.9055C50.9686 40.9055 51.4271 39.5409 52.1532 38.3952C52.5857 37.7128 53.7305 36.5031 53.9439 36.5031C54.0233 36.5031 54.1184 36.6666 54.1553 36.8665ZM107.606 40.0468C107.334 40.2 106.97 40.7524 106.883 41.1437C106.779 41.6119 107.079 42.4449 107.415 42.6185C108.015 42.9286 108.703 42.33 108.702 41.4987C108.702 40.9772 108.375 40.0534 108.191 40.0534C108.137 40.0534 108.031 40.0255 107.954 39.9914C107.878 39.9572 107.721 39.9821 107.606 40.0468Z"/>
</mask>
<path fill-rule="evenodd" clip-rule="evenodd" d="M18.5649 1.81675C18.4796 2.26579 17.814 5.65533 17.0859 9.34892C15.4807 17.4924 15.5011 17.3565 15.715 18.4923C16.1397 20.7468 17.5951 22.0773 19.6342 22.0753C20.3594 22.0746 20.6173 22.0115 21.0439 21.7304C21.6711 21.3168 22.3561 20.3942 22.6489 19.5682C22.8032 19.1328 26.2126 1.41543 26.2126 1.04875C26.2126 1.02205 24.5268 1.00018 22.4664 1.00018H18.7202L18.5649 1.81675ZM29.2506 12.6101C28.0214 18.9951 26.8873 24.8741 26.7304 25.6747L26.4452 27.1304H31.8917H37.3381L37.6228 26.0893C37.7793 25.5167 37.9074 25.0054 37.9074 24.9532C37.9074 24.9009 36.7092 24.8582 35.2447 24.8582C33.7803 24.8582 32.5821 24.8173 32.5821 24.7673C32.5821 24.6977 36.7325 2.83299 37.033 1.31971L37.0964 1.00018L34.2911 1.00061L31.4857 1.00089L29.2506 12.6101ZM98.7895 1.53273C98.7301 1.8257 97.6145 7.1936 96.3104 13.4617L93.9392 24.8582H91.7145C90.491 24.8582 89.4899 24.8367 89.4899 24.8105C89.4899 24.7842 90.0303 21.9564 90.6906 18.5264C91.8617 12.4441 91.9003 12.2788 92.2553 11.8286L92.6194 11.367H93.853H95.0866L95.3164 10.3049C95.6798 8.6248 95.9817 8.78442 92.5441 8.83909C89.213 8.89207 88.8881 8.96918 87.8908 9.94324C87.1405 10.676 87.2462 10.2808 84.8325 21.3789C84.5239 22.798 84.3394 23.919 84.3412 24.3648C84.3453 25.4644 84.7029 26.1999 85.522 26.7942C85.8658 27.0436 86.2736 27.0618 92.3795 27.099C98.5265 27.1365 98.8745 27.1251 98.9271 26.886C98.9576 26.7471 99.6694 23.3102 100.509 19.2487C101.348 15.1872 102.109 11.7522 102.2 11.6156C102.447 11.2451 104.519 11.2483 104.766 11.6197C104.964 11.9169 105.094 11.1451 103.265 20.5044C102.58 24.0068 102.02 26.9305 102.02 27.0014C102.02 27.0765 103.798 27.1304 106.281 27.1304H110.541L110.771 26.1617C110.897 25.629 111 25.1178 111 25.0256C111 24.906 110.627 24.8582 109.695 24.8582C108.74 24.8582 108.39 24.8119 108.39 24.6856C108.39 24.5906 108.936 21.8005 109.603 18.4854C110.629 13.388 110.807 12.3528 110.757 11.778C110.654 10.5983 110.229 9.73135 109.486 9.18759C109.091 8.89874 108.891 8.87786 105.869 8.81083L102.67 8.73983L103.439 5.04752C103.862 3.01675 104.209 1.2754 104.211 1.1777C104.212 1.04023 103.613 1.00018 101.555 1.00018H98.8973L98.7895 1.53273ZM25.2728 2.111C25.2728 2.42584 22.1044 18.7406 21.9665 19.1358C21.7268 19.8227 20.9708 20.6982 20.453 20.8885C20.2031 20.9804 19.6436 21.0274 19.2065 20.9932C18.5467 20.9418 18.3009 20.8476 17.7447 20.4332C16.2845 19.3456 16.1071 18.2276 16.8123 14.5585C17.6161 10.3772 19.238 2.20842 19.2859 2.10077C19.3509 1.95493 25.2728 1.96501 25.2728 2.111ZM44.1909 8.96279C43.1671 9.23673 42.0671 10.1841 41.7165 11.0937C41.639 11.2949 40.9381 14.2212 40.1592 17.5968C38.6095 24.3114 38.5363 24.817 38.9639 25.8517C39.0858 26.1466 39.3788 26.5377 39.6165 26.7231L40.048 27.0594H45.2167C50.0363 27.0594 50.4199 27.0412 50.8974 26.7908C51.4617 26.4947 52.147 25.7269 52.3698 25.1409C52.6126 24.5023 55.3452 12.2856 55.3452 11.8387C55.3452 10.5601 54.7617 9.31824 53.9983 8.97188C53.5753 8.78002 44.904 8.77192 44.1909 8.96279ZM57.3468 9.76941C57.2305 10.2967 56.3516 14.3354 55.3937 18.7444C54.4357 23.1535 53.6286 26.8441 53.5999 26.9456C53.558 27.0941 54.0579 27.1304 56.1547 27.1304H58.7615L59.7793 22.2665C60.9283 16.7753 60.7411 17.2689 62.3934 15.3748C63.7561 13.8126 64.921 12.84 65.1143 13.103C65.1506 13.1523 64.0606 18.8008 63.6332 20.778C63.5822 21.0139 63.7243 21.0268 65.9586 20.991L68.3383 20.9528L68.8952 18.6097C70.5419 11.6822 70.5677 11.4098 69.7007 10.1047C69.1483 9.27308 68.6102 9.04089 67.4315 9.12567C65.9293 9.23375 64.9544 9.85888 62.8883 12.039C62.279 12.6819 61.763 13.1841 61.7414 13.1548C61.7103 13.1125 62.2649 10.1519 62.5087 9.05935C62.5604 8.82745 62.3965 8.81083 60.0613 8.81083H57.5584L57.3468 9.76941ZM74.3677 8.96009C73.6753 9.14953 72.7736 9.76302 72.3362 10.3423C71.9026 10.9163 71.605 12.0469 69.7644 20.1096C68.8764 23.9997 68.7657 24.8938 69.0724 25.7004C69.284 26.2567 69.7917 26.8074 70.2541 26.9821C70.4949 27.0731 72.4497 27.1291 75.4006 27.1295C80.6107 27.1305 80.7534 27.1113 81.6675 26.2877C81.9258 26.055 82.2411 25.6128 82.3684 25.3048C82.4957 24.9968 83.2366 21.9425 84.015 18.5175C85.2938 12.89 85.4255 12.2123 85.3822 11.4828C85.3231 10.4884 84.9797 9.61547 84.4818 9.19441C84.1168 8.88553 84.0577 8.88156 79.4658 8.85912C76.9101 8.84662 74.616 8.89206 74.3677 8.96009ZM8.61647 18.6311C4.48246 23.1627 1.05546 26.9287 1.00085 27.0003C0.940808 27.0791 4.19291 27.1301 9.24987 27.1297L17.5981 27.1291L18.0515 24.989C18.3008 23.8118 18.4888 22.8305 18.4691 22.8082C18.4495 22.7861 18.1581 22.652 17.8214 22.5106C16.6461 22.0162 15.6402 20.9029 15.2273 19.6391C14.7804 18.2714 14.8426 17.3572 15.6689 13.1572C15.9588 11.6836 16.1819 10.4586 16.1644 10.435C16.1471 10.4114 12.7505 14.0996 8.61647 18.6311ZM49.3623 11.5308C49.5461 11.6066 49.7246 11.7881 49.7586 11.9342C49.7928 12.0804 49.4402 14.0414 48.9752 16.2923C48.5102 18.5432 47.9608 21.2156 47.7542 22.231C47.5478 23.2463 47.2879 24.2146 47.1767 24.3827C46.8102 24.9368 45.3525 25.1983 44.6051 24.844C44.2037 24.6537 44.1141 24.2653 44.2773 23.4216C44.7136 21.1667 46.4969 12.5023 46.5915 12.1782C46.6551 11.9604 46.8064 11.7077 46.9278 11.6167C47.4062 11.2576 48.5977 11.2155 49.3623 11.5308ZM79.5441 11.5328C79.7565 11.6205 79.9042 11.7887 79.9389 11.9817C79.9846 12.2372 79.4635 14.884 77.669 23.5091C77.4987 24.3273 77.2202 24.6801 76.5939 24.8707C75.4894 25.2068 74.3493 24.8506 74.3493 24.1693C74.3493 23.952 76.2764 14.3788 76.6616 12.6829C76.7937 12.1011 76.9419 11.738 77.0939 11.6232C77.5785 11.2577 78.7722 11.2137 79.5441 11.5328ZM33.6389 30.0941C33.0112 31.008 30.807 39.8068 30.807 41.3986C30.807 42.0629 31.2172 42.6751 31.5658 42.5307C31.9211 42.3834 32.1533 42.0479 32.2586 41.5295C32.4094 40.7865 33.2964 39.0933 34.1317 37.9536C34.5534 37.3784 34.9218 36.9397 34.9505 36.9787C34.9791 37.0177 34.9004 37.5816 34.7754 38.232C34.6504 38.8823 34.5234 39.9895 34.4933 40.6925C34.4429 41.8672 34.4576 42.0034 34.6749 42.3758C34.8853 42.7363 34.9568 42.7711 35.3226 42.6916C35.8692 42.5727 36.4185 42.1782 37.1204 41.4007L37.6986 40.7602V41.2273C37.6986 42.186 38.2888 42.7223 38.9856 42.3965C39.4123 42.197 40.2709 41.3398 40.8255 40.5596C41.0234 40.2812 41.2171 40.0534 41.256 40.0534C41.2948 40.0534 41.3489 40.3693 41.3763 40.7554C41.4373 41.6198 41.6792 42.146 42.1347 42.4049C42.6574 42.7018 43.3333 42.3766 44.1898 41.4158L44.8818 40.6395L44.8277 41.1878C44.7827 41.6434 44.819 41.7978 45.0426 42.1018C45.3582 42.531 45.8388 42.5855 46.0764 42.2191C46.1651 42.0825 46.4136 41.4913 46.6288 40.9055C47.1729 39.4238 48.0362 37.6848 48.5957 36.9438C49.0526 36.3387 49.0773 36.3251 49.395 36.504C49.703 36.6775 49.7414 36.6633 50.0312 36.2694C50.4142 35.7485 50.5356 34.9525 50.2842 34.6107C50.0876 34.3433 49.647 34.3028 49.2377 34.5145C48.8117 34.7348 47.8565 36.0366 47.2264 37.2557C46.9116 37.8649 46.6338 38.3359 46.6093 38.3026C46.5282 38.1922 46.8098 36.8697 47.0595 36.1883C47.3549 35.3824 47.367 35.0614 47.114 34.75C46.8285 34.3985 46.4578 34.4646 46.0307 34.9434C45.6358 35.3861 45.525 35.8191 45.3703 37.5262C45.3158 38.1273 45.2242 38.3136 44.454 39.3884C43.5257 40.684 43.0934 40.9874 42.8355 40.5252C42.6024 40.1073 42.7375 38.3352 43.1171 36.8313C43.2956 36.1247 43.4416 35.4443 43.4416 35.3196C43.4416 35.0168 43.0618 34.7553 42.7677 34.8557C42.6088 34.9099 42.4695 34.8439 42.3436 34.6547C42.0956 34.2819 41.732 34.3011 41.0674 34.722C40.3911 35.1502 39.6743 36.0506 38.737 37.649C37.7281 39.3697 36.4759 40.7635 35.9391 40.7635C35.6555 40.7635 35.8683 39.2411 36.4335 37.2273C37.0515 35.0252 37.0835 34.702 36.6971 34.5701C36.0847 34.361 35.0083 35.1708 33.6524 36.8607C33.2359 37.3796 32.8953 37.744 32.8953 37.6705C32.8953 37.4046 33.6287 34.5326 33.9885 33.3892C34.191 32.7457 34.5024 31.9431 34.6805 31.6059C35.0552 30.8962 35.0305 30.5949 34.5524 30.0479C34.1477 29.5846 33.9832 29.593 33.6389 30.0941ZM72.2913 29.9009C72.0331 30.1468 71.6758 31.1334 70.7814 34.0701C69.3791 38.6744 68.9485 41.2399 69.4375 42.0771C69.6283 42.4037 69.7455 42.4674 70.1541 42.4662C70.862 42.4642 71.5885 41.9621 72.7478 40.6732L73.1485 40.2278V40.9812C73.1485 42.2518 73.7099 42.7775 74.485 42.2328C74.9945 41.8746 75.899 40.9385 76.5831 40.0614L77.1983 39.2724L77.1105 40.0534C76.8984 41.9384 77.1005 42.5399 77.9099 42.4341C78.559 42.3493 79.2739 41.8553 80.06 40.9483C80.6115 40.312 80.6981 40.251 80.6121 40.5587C80.4348 41.1929 80.4952 41.6173 80.8271 42.0687C81.1253 42.4743 81.1829 42.4965 81.7929 42.4408C82.9036 42.3394 84.7911 40.877 84.7911 40.1179C84.7911 39.6734 84.7182 39.6798 83.9816 40.1888C83.6479 40.4195 83.1811 40.6503 82.9444 40.7019C82.5716 40.783 82.4977 40.7543 82.3931 40.4886C82.1416 39.8497 82.8383 36.8359 83.2624 36.7278C85.1853 36.2373 85.7082 36.092 85.8654 36.0045C86.0319 35.9118 86.0279 35.9563 85.828 36.4172C85.6596 36.8051 85.6208 37.0571 85.6722 37.4289C85.7219 37.7895 85.6514 38.3007 85.4132 39.3083C85.0141 40.9968 85.0369 41.6354 85.5172 42.2191C85.694 42.4338 85.9536 42.6097 86.094 42.6097C86.5846 42.6097 87.5202 42.0109 88.2152 41.252L88.9156 40.4874L88.9874 41.043C89.149 42.2935 89.6759 42.7642 90.6144 42.4965C91.4594 42.2553 92.0455 41.8175 92.7884 40.8726C94.1525 39.1372 94.4613 36.8454 93.5061 35.5464C93.3133 35.2841 93.1238 34.9287 93.085 34.7567C92.9666 34.2312 92.8225 34.0889 92.4088 34.0889C92.1378 34.0889 91.9136 34.2016 91.7017 34.444C91.5311 34.6392 91.3129 34.799 91.217 34.799C90.8943 34.799 90.656 35.0773 90.5284 35.6034C90.2633 36.696 89.2987 38.4571 88.4126 39.4664C87.4391 40.5752 87.2099 40.7635 86.8341 40.7635C86.6386 40.7635 86.5662 40.6891 86.5662 40.488C86.5662 40.0588 87.0606 38.2722 87.5891 36.7916C88.103 35.3516 88.1398 35.0603 87.8609 34.6411C87.6061 34.2582 87.3771 34.3065 86.8492 34.8547C86.5815 35.1326 86.3326 35.2921 86.2609 35.2317C86.1926 35.1742 85.5519 35.1579 84.8374 35.1954C84.1227 35.2327 83.5381 35.2215 83.5381 35.1704C83.5381 35.1191 83.7301 34.5249 83.9647 33.8499C84.3237 32.8175 84.3736 32.5693 84.2789 32.2865C84.136 31.8599 83.7764 31.6756 83.4182 31.8453C83.0115 32.0381 82.8802 32.3061 82.4362 33.8504C82.2156 34.6174 81.9622 35.2969 81.873 35.3605C81.7838 35.424 81.5125 35.5207 81.27 35.5754C81.0277 35.6299 80.7105 35.8017 80.5652 35.9572C80.0248 36.5352 80.3871 37.1797 81.1582 37.012C81.5485 36.927 81.5664 36.9391 81.5026 37.2453C81.4251 37.6178 80.0285 39.5142 79.4116 40.0845C79.1819 40.297 78.877 40.4887 78.7339 40.5106C78.5097 40.5449 78.4693 40.4871 78.4412 40.0914C78.3938 39.4238 78.6831 38.0318 79.1642 36.6106C79.4161 35.8669 79.5599 35.2622 79.5226 35.1028C79.4187 34.6574 79.0886 34.3483 78.7701 34.3978C78.5202 34.4367 78.3437 34.7107 77.6424 36.1481C76.7797 37.9166 75.2619 40.1954 74.9468 40.1954C74.8287 40.1954 74.767 40.0831 74.767 39.868C74.767 39.3188 75.1975 37.732 75.4487 37.3552C75.8646 36.7315 76.2288 35.9051 76.2288 35.585C76.2288 35.2324 75.8758 34.7378 75.5189 34.5905C75.1057 34.42 74.7978 34.8622 74.1987 36.4868C73.7033 37.8302 73.5279 38.1555 72.8156 39.0517C71.9771 40.1068 71.3858 40.6215 71.0121 40.6215C70.8385 40.6215 70.7991 40.53 70.7991 40.1283C70.7991 39.2524 71.9316 35.0062 72.8336 32.5005C73.3733 31.0012 73.4142 30.5321 73.0488 30.0352C72.7517 29.631 72.6024 29.6045 72.2913 29.9009ZM87.9236 29.9307C87.6372 30.0635 87.506 30.4436 87.506 31.1409C87.506 32.0239 87.7168 32.5704 88.1706 32.8632C88.7473 33.2355 88.8308 33.1004 88.8903 31.7017C88.9336 30.6848 88.9128 30.4269 88.7726 30.2363C88.5798 29.9744 88.1574 29.8223 87.9236 29.9307ZM109.126 32.519C108.905 32.8196 108.544 34.2977 108.113 36.6622C107.832 38.2061 107.837 38.8559 108.132 39.0101C108.373 39.1358 108.809 38.664 108.982 38.0897C109.383 36.7592 110.086 34.9572 110.322 34.6561C110.637 34.2537 110.651 33.8339 110.373 33.094C110.048 32.228 109.519 31.9842 109.126 32.519ZM51.4499 34.0695C50.994 34.4782 50.9059 34.735 50.4918 36.8589C49.9833 39.4659 49.2258 42.8063 48.4547 45.8401C47.715 48.7508 47.7197 49.0002 48.5143 49.0002C49.4414 49.0002 51.0641 48.2399 51.0641 47.8054C51.0641 47.5423 50.8302 47.4381 50.2401 47.4381C49.3356 47.4381 49.3305 47.3808 50.0069 44.8818C50.3346 43.6712 50.634 42.5712 50.6721 42.4373C50.7334 42.222 50.7732 42.2163 51.0154 42.3871C51.3598 42.6301 51.7499 42.5007 52.8914 41.7648C53.3508 41.4686 54.1271 40.9734 54.6165 40.6642C56.2217 39.6504 57.836 38.0265 58.0436 37.2166C58.1871 36.6568 58.0392 36.548 57.6129 36.8998C57.4281 37.0522 56.8102 37.5674 56.2397 38.0447C55.6692 38.522 55.1848 38.8885 55.1633 38.8593C55.1418 38.83 55.1951 38.5754 55.2816 38.2935C55.5491 37.4227 55.6695 36.2346 55.551 35.636C55.4326 35.0379 55.0212 34.515 54.6691 34.515C54.2875 34.515 53.2427 35.3078 52.6042 36.0819C52.1491 36.6338 52.004 36.747 52.0049 36.55C52.0061 36.2221 52.4659 34.8662 52.6196 34.7371C52.7927 34.5915 52.7582 34.2155 52.552 34.0026C52.2911 33.7332 51.791 33.7635 51.4499 34.0695ZM66.6224 34.2182C66.1928 34.5447 65.8834 34.7479 65.5323 34.9341C65.3723 35.0188 65.2422 35.2435 65.1823 35.5383C65.1299 35.7965 64.8689 36.45 64.6022 36.9908C63.4315 39.3651 63.2798 41.6181 64.2389 42.3887C64.965 42.9721 66.5016 42.1833 67.5603 40.684C68.2897 39.6508 68.6059 38.7944 68.6825 37.6444C68.7466 36.6831 68.4721 35.6752 68.0418 35.2916C67.8928 35.159 67.771 34.9421 67.771 34.8098C67.771 34.1088 67.172 33.8004 66.6224 34.2182ZM96.0917 34.4099C95.6732 35.0159 95.1272 37.0845 94.6656 39.8137C94.4303 41.2049 94.4495 41.7042 94.7483 41.9706C94.8838 42.0913 95.0724 42.1495 95.1674 42.0998C95.2626 42.0503 95.6803 41.3937 96.0958 40.6409C96.8989 39.1863 98.2194 37.2132 98.3899 37.2132C98.4462 37.2132 98.4599 37.3251 98.4205 37.4617C98.381 37.5983 98.2592 38.1895 98.1498 38.7753C97.5539 41.9668 98.3811 43.4994 100.109 42.4052C100.734 42.0097 101.804 40.6172 102.326 39.5225L102.68 38.7783L103.081 39.6645C103.301 40.1517 103.482 40.6324 103.482 40.7324C103.482 41.0178 103.173 41.1079 102.737 40.9495C102.388 40.8227 102.292 40.8463 101.977 41.1373C101.306 41.7579 101.421 42.4559 102.246 42.7578C102.74 42.9387 103.214 42.7804 103.982 42.1782C105.081 41.3168 105.19 40.3995 104.383 38.7934C103.774 37.5803 103.71 37.2291 104.028 36.8237C104.338 36.4267 105.065 36.0771 105.579 36.0771C106.189 36.0771 106.51 35.8242 106.51 35.3422C106.51 34.7002 105.999 34.3386 105.202 34.4161C103.839 34.5485 102.438 36.1092 102.438 37.495C102.438 37.9003 102.297 38.1569 101.411 39.3617C99.9318 41.3729 99.3052 41.6391 99.3052 40.2564C99.3052 39.4867 99.7414 37.5836 100.205 36.3292C100.633 35.1718 100.649 34.7747 100.283 34.3833C99.9179 33.9927 99.7654 34.0117 99.4299 34.4896C99.2751 34.71 98.8432 35.1857 98.4699 35.5467C98.0966 35.9077 97.488 36.5901 97.1176 37.0631C96.7472 37.5363 96.4346 37.9233 96.4231 37.9233C96.3715 37.9233 96.6947 36.6314 96.8453 36.235C96.9372 35.9935 97.1288 35.692 97.2712 35.565C97.5869 35.2838 97.5994 34.9572 97.3136 34.4631C97.0269 33.9674 96.4158 33.9408 96.0917 34.4099ZM28.9797 34.72C28.559 34.959 28.1757 35.3259 27.813 35.8367C26.9577 37.0412 26.9514 37.8645 27.7843 39.591C28.0195 40.0787 28.1964 40.59 28.1773 40.7271C28.1351 41.0292 27.6712 41.1312 27.3621 40.9062C27.1858 40.7778 27.0744 40.8058 26.7813 41.0522C26.5819 41.2198 26.369 41.4834 26.3082 41.6377C26.0313 42.3415 26.957 43.0581 27.7527 42.7559C28.4011 42.5097 29.1666 41.8593 29.4291 41.3315C29.7772 40.6319 29.6915 39.9758 29.0977 38.7934C28.4884 37.5803 28.425 37.2291 28.7422 36.8237C29.0524 36.4273 29.7791 36.0771 30.2913 36.0771C30.9352 36.0771 31.2246 35.8648 31.2246 35.3926C31.2246 34.4088 30.1135 34.0759 28.9797 34.72ZM62.0494 34.6343C61.1077 35.0897 60.1928 36.3056 60.0799 37.2514C60.0173 37.7767 60.2774 38.6546 60.9411 40.158C61.0872 40.4888 61.1773 40.8244 61.1412 40.9035C61.0602 41.082 60.4626 41.0888 60.259 40.9137C60.0825 40.7618 59.6711 41.014 59.3788 41.4532C58.9579 42.0859 59.4833 42.8157 60.3599 42.816C60.8105 42.8163 61.8152 42.1671 62.2229 41.6126C62.7856 40.8473 62.7217 40.0742 61.9769 38.6356C61.4197 37.5593 61.374 37.0728 61.793 36.678C62.1893 36.3046 62.3857 36.2215 63.2047 36.0817C64.2435 35.9043 64.4933 35.4808 63.9605 34.8C63.6048 34.3454 62.7922 34.275 62.0494 34.6343ZM41.5689 36.2241C41.8588 36.4351 41.8187 36.9131 41.4434 37.7179C40.8742 38.9389 39.765 40.4795 39.4551 40.4795C39.3002 40.4795 39.3697 39.7108 39.5822 39.0741C39.8514 38.2671 40.6485 36.7494 41.0015 36.3718C41.3217 36.0292 41.3065 36.0332 41.5689 36.2241ZM67.2604 36.4676C67.4219 37.0377 67.3144 37.8017 66.9097 38.9608C66.3614 40.5313 65.681 41.3091 65.3041 40.7964C65.0651 40.4715 65.1742 39.6477 65.6178 38.427C66.098 37.1057 66.678 36.0771 66.943 36.0771C67.072 36.0771 67.1912 36.2239 67.2604 36.4676ZM92.6339 36.4676C92.7919 37.025 92.6933 37.7622 92.3095 38.895C91.9887 39.8416 91.4118 40.7705 91.0331 40.9501C90.9319 40.9981 90.7785 40.9336 90.6822 40.8025C90.3228 40.3137 90.794 38.4667 91.6974 36.8227C92.1655 35.9709 92.4613 35.8587 92.6339 36.4676ZM54.1553 36.8665C54.249 37.3748 53.5829 39.1663 53.0622 39.8061C52.6821 40.2731 51.6742 40.9055 51.3099 40.9055C50.9686 40.9055 51.4271 39.5409 52.1532 38.3952C52.5857 37.7128 53.7305 36.5031 53.9439 36.5031C54.0233 36.5031 54.1184 36.6666 54.1553 36.8665ZM107.606 40.0468C107.334 40.2 106.97 40.7524 106.883 41.1437C106.779 41.6119 107.079 42.4449 107.415 42.6185C108.015 42.9286 108.703 42.33 108.702 41.4987C108.702 40.9772 108.375 40.0534 108.191 40.0534C108.137 40.0534 108.031 40.0255 107.954 39.9914C107.878 39.9572 107.721 39.9821 107.606 40.0468Z" stroke="white" stroke-width="2" mask="url(#path-1-outside-1_27_41)"/>
</svg>
